#include <stdint.h>
const uint8_t midifile1[] = {
0x4d,0x54,0x68,0x64,0x00,0x00,0x00,0x06,0x00,0x01,0x00,0x02,0x04,0x00,0x4d,0x54,
0x72,0x6b,0x00,0x00,0x05,0x58,0x00,0xff,0x54,0x05,0x00,0x00,0x00,0x00,0x00,0x00,
0xff,0x58,0x04,0x04,0x02,0x18,0x08,0x00,0xff,0x59,0x02,0x00,0x00,0x00,0xff,0x51,
0x03,0x06,0xbb,0x5a,0x00,0xff,0x51,0x03,0x06,0xbb,0x5a,0x00,0xff,0x51,0x03,0x06,
0xbb,0x65,0xf0,0x00,0xff,0x51,0x03,0x06,0xbb,0x65,0x82,0x00,0xff,0x51,0x03,0x06,
0xc2,0x1b,0x82,0x00,0xff,0x51,0x03,0x06,0xc8,0x1f,0x82,0x00,0xff,0x51,0x03,0x06,
0xce,0xec,0x82,0x00,0xff,0x51,0x03,0x06,0xce,0xec,0x82,0x00,0xff,0x51,0x03,0x06,
0xd5,0xc9,0x82,0x00,0xff,0x51,0x03,0x06,0xdb,0xed,0x82,0x00,0xff,0x51,0x03,0x06,
0xe2,0xe5,0x82,0x00,0xff,0x51,0x03,0x06,0xbb,0x65,0x81,0xf0,0x00,0xff,0x51,0x03,
0x06,0xbb,0x65,0x82,0x00,0xff,0x51,0x03,0x06,0xc2,0x1b,0x82,0x00,0xff,0x51,0x03,
0x06,0xc8,0x1f,0x82,0x00,0xff,0x51,0x03,0x06,0xce,0xec,0x82,0x00,0xff,0x51,0x03,
0x06,0xce,0xec,0x82,0x00,0xff,0x51,0x03,0x06,0xd5,0xc9,0x82,0x00,0xff,0x51,0x03,
0x06,0xdb,0xed,0x82,0x00,0xff,0x51,0x03,0x06,0xe2,0xe5,0x82,0x00,0xff,0x51,0x03,
0x06,0xbb,0x65,0x82,0xb0,0x00,0xff,0x51,0x03,0x06,0xbb,0x65,0x82,0x00,0xff,0x51,
0x03,0x06,0xc2,0x1b,0x82,0x00,0xff,0x51,0x03,0x06,0xc8,0x1f,0x82,0x00,0xff,0x51,
0x03,0x06,0xce,0xec,0x82,0x00,0xff,0x51,0x03,0x06,0xce,0xec,0x82,0x00,0xff,0x51,
0x03,0x06,0xd5,0xc9,0x82,0x00,0xff,0x51,0x03,0x06,0xdb,0xed,0x82,0x00,0xff,0x51,
0x03,0x06,0xe2,0xe5,0x82,0x00,0xff,0x51,0x03,0x06,0xbb,0x65,0x90,0x00,0xff,0x51,
0x03,0x06,0xbb,0x65,0x82,0x00,0xff,0x51,0x03,0x06,0xc2,0x1b,0x82,0x00,0xff,0x51,
0x03,0x06,0xc8,0x1f,0x82,0x00,0xff,0x51,0x03,0x06,0xce,0xec,0x82,0x00,0xff,0x51,
0x03,0x06,0xce,0xec,0x82,0x00,0xff,0x51,0x03,0x06,0xd5,0xc9,0x82,0x00,0xff,0x51,
0x03,0x06,0xdb,0xed,0x82,0x00,0xff,0x51,0x03,0x06,0xe2,0xe5,0x82,0x00,0xff,0x51,
0x03,0x06,0xbb,0x65,0x90,0x00,0xff,0x51,0x03,0x06,0xbb,0x65,0x82,0x00,0xff,0x51,
0x03,0x06,0xc8,0x1f,0x82,0x00,0xff,0x51,0x03,0x06,0xce,0xec,0x82,0x00,0xff,0x51,
0x03,0x06,0xdb,0xed,0x82,0x00,0xff,0x51,0x03,0x06,0xe2,0xe5,0x82,0x00,0xff,0x51,
0x03,0x06,0xf0,0x33,0x82,0x00,0xff,0x51,0x03,0x06,0xf6,0x8a,0x82,0x00,0xff,0x51,
0x03,0x07,0x04,0x26,0x84,0x00,0xff,0x51,0x03,0x06,0xbb,0x65,0x82,0xce,0x00,0xff,
0x51,0x03,0x06,0xbb,0x65,0x82,0x00,0xff,0x51,0x03,0x06,0xc2,0x1b,0x82,0x00,0xff,
0x51,0x03,0x06,0xc8,0x1f,0x82,0x00,0xff,0x51,0x03,0x06,0xce,0xec,0x82,0x00,0xff,
0x51,0x03,0x06,0xce,0xec,0x82,0x00,0xff,0x51,0x03,0x06,0xd5,0xc9,0x82,0x00,0xff,
0x51,0x03,0x06,0xdb,0xed,0x82,0x00,0xff,0x51,0x03,0x06,0xe2,0xe5,0x82,0x00,0xff,
0x51,0x03,0x06,0xbb,0x65,0x90,0x00,0xff,0x51,0x03,0x06,0xbb,0x65,0x82,0x00,0xff,
0x51,0x03,0x06,0xc2,0x1b,0x82,0x00,0xff,0x51,0x03,0x06,0xc8,0x1f,0x82,0x00,0xff,
0x51,0x03,0x06,0xce,0xec,0x82,0x00,0xff,0x51,0x03,0x06,0xce,0xec,0x82,0x00,0xff,
0x51,0x03,0x06,0xd5,0xc9,0x82,0x00,0xff,0x51,0x03,0x06,0xdb,0xed,0x82,0x00,0xff,
0x51,0x03,0x06,0xe2,0xe5,0x82,0x00,0xff,0x51,0x03,0x06,0xbb,0x65,0xb0,0x00,0xff,
0x51,0x03,0x06,0xbb,0x65,0x82,0x00,0xff,0x51,0x03,0x06,0xc8,0x1f,0x82,0x00,0xff,
0x51,0x03,0x06,0xce,0xec,0x82,0x00,0xff,0x51,0x03,0x06,0xdb,0xed,0x82,0x00,0xff,
0x51,0x03,0x06,0xe2,0xe5,0x82,0x00,0xff,0x51,0x03,0x06,0xf0,0x33,0x82,0x00,0xff,
0x51,0x03,0x06,0xf6,0x8a,0x82,0x00,0xff,0x51,0x03,0x07,0x04,0x26,0x84,0x00,0xff,
0x51,0x03,0x06,0xbb,0x65,0xee,0x00,0xff,0x51,0x03,0x06,0xbb,0x65,0x82,0x00,0xff,
0x51,0x03,0x06,0xc2,0x1b,0x82,0x00,0xff,0x51,0x03,0x06,0xc8,0x1f,0x82,0x00,0xff,
0x51,0x03,0x06,0xce,0xec,0x82,0x00,0xff,0x51,0x03,0x06,0xce,0xec,0x82,0x00,0xff,
0x51,0x03,0x06,0xd5,0xc9,0x82,0x00,0xff,0x51,0x03,0x06,0xdb,0xed,0x82,0x00,0xff,
0x51,0x03,0x06,0xe2,0xe5,0x82,0x00,0xff,0x51,0x03,0x06,0xbb,0x65,0x82,0x80,0x00,
0xff,0x51,0x03,0x06,0xbb,0x5a,0x00,0xff,0x51,0x03,0x06,0xbb,0x65,0xf0,0x00,0xff,
0x51,0x03,0x06,0xbb,0x65,0x82,0x00,0xff,0x51,0x03,0x06,0xc2,0x1b,0x82,0x00,0xff,
0x51,0x03,0x06,0xc8,0x1f,0x82,0x00,0xff,0x51,0x03,0x06,0xce,0xec,0x82,0x00,0xff,
0x51,0x03,0x06,0xce,0xec,0x82,0x00,0xff,0x51,0x03,0x06,0xd5,0xc9,0x82,0x00,0xff,
0x51,0x03,0x06,0xdb,0xed,0x82,0x00,0xff,0x51,0x03,0x06,0xe2,0xe5,0x82,0x00,0xff,
0x51,0x03,0x06,0xbb,0x65,0x81,0xf0,0x00,0xff,0x51,0x03,0x06,0xbb,0x65,0x82,0x00,
0xff,0x51,0x03,0x06,0xc2,0x1b,0x82,0x00,0xff,0x51,0x03,0x06,0xc8,0x1f,0x82,0x00,
0xff,0x51,0x03,0x06,0xce,0xec,0x82,0x00,0xff,0x51,0x03,0x06,0xce,0xec,0x82,0x00,
0xff,0x51,0x03,0x06,0xd5,0xc9,0x82,0x00,0xff,0x51,0x03,0x06,0xdb,0xed,0x82,0x00,
0xff,0x51,0x03,0x06,0xe2,0xe5,0x82,0x00,0xff,0x51,0x03,0x06,0xbb,0x65,0x82,0xb0,
0x00,0xff,0x51,0x03,0x06,0xbb,0x65,0x82,0x00,0xff,0x51,0x03,0x06,0xc2,0x1b,0x82,
0x00,0xff,0x51,0x03,0x06,0xc8,0x1f,0x82,0x00,0xff,0x51,0x03,0x06,0xce,0xec,0x82,
0x00,0xff,0x51,0x03,0x06,0xce,0xec,0x82,0x00,0xff,0x51,0x03,0x06,0xd5,0xc9,0x82,
0x00,0xff,0x51,0x03,0x06,0xdb,0xed,0x82,0x00,0xff,0x51,0x03,0x06,0xe2,0xe5,0x82,
0x00,0xff,0x51,0x03,0x06,0xbb,0x65,0x90,0x00,0xff,0x51,0x03,0x06,0xbb,0x65,0x82,
0x00,0xff,0x51,0x03,0x06,0xc2,0x1b,0x82,0x00,0xff,0x51,0x03,0x06,0xc8,0x1f,0x82,
0x00,0xff,0x51,0x03,0x06,0xce,0xec,0x82,0x00,0xff,0x51,0x03,0x06,0xce,0xec,0x82,
0x00,0xff,0x51,0x03,0x06,0xd5,0xc9,0x82,0x00,0xff,0x51,0x03,0x06,0xdb,0xed,0x82,
0x00,0xff,0x51,0x03,0x06,0xe2,0xe5,0x82,0x00,0xff,0x51,0x03,0x06,0xbb,0x65,0x90,
0x00,0xff,0x51,0x03,0x06,0xbb,0x65,0x82,0x00,0xff,0x51,0x03,0x06,0xc8,0x1f,0x82,
0x00,0xff,0x51,0x03,0x06,0xce,0xec,0x82,0x00,0xff,0x51,0x03,0x06,0xdb,0xed,0x82,
0x00,0xff,0x51,0x03,0x06,0xe2,0xe5,0x82,0x00,0xff,0x51,0x03,0x06,0xf0,0x33,0x82,
0x00,0xff,0x51,0x03,0x06,0xf6,0x8a,0x82,0x00,0xff,0x51,0x03,0x07,0x04,0x26,0x84,
0x00,0xff,0x51,0x03,0x06,0xbb,0x65,0x82,0xce,0x00,0xff,0x51,0x03,0x06,0xbb,0x65,
0x82,0x00,0xff,0x51,0x03,0x06,0xc2,0x1b,0x82,0x00,0xff,0x51,0x03,0x06,0xc8,0x1f,
0x82,0x00,0xff,0x51,0x03,0x06,0xce,0xec,0x82,0x00,0xff,0x51,0x03,0x06,0xce,0xec,
0x82,0x00,0xff,0x51,0x03,0x06,0xd5,0xc9,0x82,0x00,0xff,0x51,0x03,0x06,0xdb,0xed,
0x82,0x00,0xff,0x51,0x03,0x06,0xe2,0xe5,0x82,0x00,0xff,0x51,0x03,0x06,0xbb,0x65,
0x90,0x00,0xff,0x51,0x03,0x06,0xbb,0x65,0x82,0x00,0xff,0x51,0x03,0x06,0xc2,0x1b,
0x82,0x00,0xff,0x51,0x03,0x06,0xc8,0x1f,0x82,0x00,0xff,0x51,0x03,0x06,0xce,0xec,
0x82,0x00,0xff,0x51,0x03,0x06,0xce,0xec,0x82,0x00,0xff,0x51,0x03,0x06,0xd5,0xc9,
0x82,0x00,0xff,0x51,0x03,0x06,0xdb,0xed,0x82,0x00,0xff,0x51,0x03,0x06,0xe2,0xe5,
0x82,0x00,0xff,0x51,0x03,0x06,0xbb,0x65,0xb0,0x00,0xff,0x51,0x03,0x06,0xbb,0x65,
0x82,0x00,0xff,0x51,0x03,0x06,0xc8,0x1f,0x82,0x00,0xff,0x51,0x03,0x06,0xce,0xec,
0x82,0x00,0xff,0x51,0x03,0x06,0xdb,0xed,0x82,0x00,0xff,0x51,0x03,0x06,0xe2,0xe5,
0x82,0x00,0xff,0x51,0x03,0x06,0xf0,0x33,0x82,0x00,0xff,0x51,0x03,0x06,0xf6,0x8a,
0x82,0x00,0xff,0x51,0x03,0x07,0x04,0x26,0x84,0x00,0xff,0x51,0x03,0x06,0xbb,0x65,
0xee,0x00,0xff,0x51,0x03,0x06,0xbb,0x65,0x82,0x00,0xff,0x51,0x03,0x06,0xc2,0x1b,
0x82,0x00,0xff,0x51,0x03,0x06,0xc8,0x1f,0x82,0x00,0xff,0x51,0x03,0x06,0xce,0xec,
0x82,0x00,0xff,0x51,0x03,0x06,0xce,0xec,0x82,0x00,0xff,0x51,0x03,0x06,0xd5,0xc9,
0x82,0x00,0xff,0x51,0x03,0x06,0xdb,0xed,0x82,0x00,0xff,0x51,0x03,0x06,0xe2,0xe5,
0x82,0x00,0xff,0x51,0x03,0x06,0xbb,0x65,0x81,0xff,0x20,0xff,0x2f,0x00,0x4d,0x54,
0x72,0x6b,0x00,0x00,0x1f,0x1e,0x00,0xff,0x09,0x16,0x53,0x6d,0x61,0x72,0x74,0x4d,
0x75,0x73,0x69,0x63,0x20,0x53,0x6f,0x66,0x74,0x53,0x79,0x6e,0x74,0x68,0x20,0x31,
0x00,0xff,0x03,0x05,0x50,0x69,0x61,0x6e,0x6f,0x00,0xc0,0x00,0x00,0xb0,0x07,0x7f,
0x00,0xb0,0x0a,0x40,0x03,0xb0,0x64,0x00,0x00,0xb0,0x65,0x00,0x00,0xb0,0x64,0x00,
0x00,0xb0,0x65,0x00,0x01,0xb0,0x06,0x0c,0x00,0xb0,0x06,0x0c,0x01,0xb0,0x26,0x00,
0x00,0xb0,0x26,0x00,0x05,0x90,0x2b,0x50,0x81,0x6e,0xb0,0x40,0x7f,0x82,0x0b,0x80,
0x2b,0x00,0x1f,0x90,0x32,0x4b,0x83,0x5d,0x80,0x32,0x00,0x1f,0x90,0x37,0x4b,0x83,
0x79,0x90,0x39,0x4b,0x87,0x7b,0x80,0x39,0x00,0x01,0x90,0x3b,0x4b,0x87,0x71,0x80,
0x3b,0x00,0x01,0x90,0x3e,0x4b,0x3b,0xb0,0x40,0x00,0x83,0x3f,0x80,0x3e,0x00,0x00,
0x80,0x37,0x00,0x05,0x90,0x3e,0x48,0x00,0x90,0x43,0x56,0x00,0x90,0x2b,0x50,0x82,
0x03,0xb0,0x40,0x7f,0x81,0x7c,0x80,0x2b,0x00,0x1f,0x90,0x32,0x4b,0x83,0x5d,0x80,
0x32,0x00,0x1e,0x80,0x3e,0x00,0x00,0x80,0x43,0x00,0x01,0x90,0x37,0x4b,0x83,0x79,
0x90,0x4a,0x43,0x00,0x90,0x4f,0x51,0x8f,0x0b,0xb0,0x40,0x00,0x84,0x5d,0x80,0x4a,
0x00,0x00,0x80,0x4f,0x00,0x00,0x80,0x37,0x00,0x05,0x90,0x29,0x50,0x83,0x23,0xb0,
0x40,0x7f,0x5c,0x80,0x29,0x00,0x1f,0x90,0x30,0x4b,0x83,0x5d,0x80,0x30,0x00,0x1f,
0x90,0x35,0x4b,0x83,0x79,0x90,0x39,0x4b,0x87,0x7b,0x80,0x39,0x00,0x01,0x90,0x3b,
0x4b,0x87,0x71,0x80,0x3b,0x00,0x01,0x90,0x3e,0x4b,0x83,0x7a,0x80,0x3e,0x00,0x00,
0x80,0x35,0x00,0x05,0x90,0x3e,0x48,0x00,0x90,0x43,0x56,0x00,0x90,0x29,0x50,0x83,
0x7f,0x80,0x29,0x00,0x1f,0x90,0x30,0x4b,0x83,0x5d,0x80,0x30,0x00,0x1e,0x80,0x3e,
0x00,0x00,0x80,0x43,0x00,0x01,0x90,0x35,0x4c,0x83,0x79,0x90,0x4a,0x43,0x00,0x90,
0x4f,0x51,0x8b,0x74,0x80,0x35,0x00,0x01,0x90,0x30,0x4c,0x83,0x25,0xb0,0x40,0x00,
0x84,0x4e,0x80,0x4a,0x00,0x00,0x80,0x4f,0x00,0x00,0x80,0x30,0x00,0x05,0x90,0x2b,
0x50,0x81,0x52,0xb0,0x40,0x7f,0x82,0x2d,0x80,0x2b,0x00,0x1f,0x90,0x32,0x4b,0x83,
0x5d,0x80,0x32,0x00,0x1f,0x90,0x37,0x4b,0x83,0x79,0x90,0x39,0x4b,0x87,0x7b,0x80,
0x39,0x00,0x01,0x90,0x3b,0x4b,0x87,0x71,0x80,0x3b,0x00,0x01,0x90,0x3e,0x4b,0x3b,
0xb0,0x40,0x00,0x83,0x3f,0x80,0x3e,0x00,0x00,0x80,0x37,0x00,0x05,0x90,0x3e,0x48,
0x00,0x90,0x43,0x56,0x00,0x90,0x2b,0x50,0x81,0x52,0xb0,0x40,0x7f,0x82,0x2d,0x80,
0x2b,0x00,0x1f,0x90,0x32,0x4b,0x83,0x5d,0x80,0x32,0x00,0x1e,0x80,0x3e,0x00,0x00,
0x80,0x43,0x00,0x01,0x90,0x37,0x4b,0x83,0x79,0x90,0x4a,0x43,0x00,0x90,0x4f,0x51,
0x90,0x29,0xb0,0x40,0x00,0x83,0x3f,0x80,0x4a,0x00,0x00,0x80,0x4f,0x00,0x00,0x80,
0x37,0x00,0x05,0x90,0x29,0x50,0x82,0x56,0xb0,0x40,0x7f,0x4d,0xb0,0x40,0x7f,0x5c,
0x80,0x29,0x00,0x1f,0x90,0x30,0x4b,0x83,0x5d,0x80,0x30,0x00,0x1f,0x90,0x35,0x4b,
0x83,0x79,0x90,0x39,0x4b,0x87,0x7b,0x80,0x39,0x00,0x01,0x90,0x3b,0x4b,0x87,0x07,
0xb0,0x40,0x00,0x6a,0x80,0x3b,0x00,0x01,0x90,0x3e,0x4b,0x83,0x7a,0x80,0x3e,0x00,
0x00,0x80,0x35,0x00,0x05,0x90,0x3e,0x48,0x00,0x90,0x43,0x56,0x00,0x90,0x29,0x50,
0x82,0x77,0xb0,0x40,0x7f,0x81,0x08,0x80,0x29,0x00,0x1f,0x90,0x30,0x4b,0x83,0x5d,
0x80,0x30,0x00,0x1e,0x80,0x3e,0x00,0x00,0x80,0x43,0x00,0x01,0x90,0x35,0x4c,0x83,
0x79,0x90,0x4a,0x43,0x00,0x90,0x4f,0x51,0x8b,0x74,0x80,0x35,0x00,0x01,0x90,0x30,
0x4c,0x83,0x25,0xb0,0x40,0x00,0x56,0xb0,0x40,0x00,0x83,0x78,0x80,0x4a,0x00,0x00,
0x80,0x4f,0x00,0x00,0x80,0x30,0x00,0x05,0x90,0x27,0x4f,0x82,0x78,0xb0,0x40,0x7f,
0x81,0x07,0x80,0x27,0x00,0x1f,0x90,0x2e,0x4b,0x83,0x5d,0x80,0x2e,0x00,0x1f,0x90,
0x33,0x4b,0x83,0x79,0x90,0x39,0x4b,0x87,0x7b,0x80,0x39,0x00,0x01,0x90,0x3a,0x4b,
0x87,0x71,0x80,0x3a,0x00,0x01,0x90,0x3e,0x4b,0x62,0xb0,0x40,0x00,0x83,0x18,0x80,
0x3e,0x00,0x00,0x80,0x33,0x00,0x05,0x90,0x3e,0x48,0x00,0x90,0x43,0x56,0x00,0x90,
0x27,0x4f,0x82,0x78,0xb0,0x40,0x7f,0x81,0x07,0x80,0x27,0x00,0x1f,0x90,0x2e,0x4b,
0x83,0x5d,0x80,0x2e,0x00,0x1e,0x80,0x3e,0x00,0x00,0x80,0x43,0x00,0x01,0x90,0x33,
0x4b,0x83,0x79,0x90,0x4a,0x43,0x00,0x90,0x4f,0x51,0x90,0x50,0xb0,0x40,0x00,0x83,
0x18,0x80,0x4a,0x00,0x00,0x80,0x4f,0x00,0x00,0x80,0x33,0x00,0x05,0x90,0x29,0x50,
0x82,0x56,0xb0,0x40,0x7f,0x81,0x29,0x80,0x29,0x00,0x1f,0x90,0x30,0x4b,0x83,0x5d,
0x80,0x30,0x00,0x1f,0x90,0x35,0x4b,0x83,0x79,0x90,0x39,0x4b,0x87,0x7b,0x80,0x39,
0x00,0x01,0x90,0x3c,0x4b,0x87,0x07,0xb0,0x40,0x00,0x6a,0x80,0x3c,0x00,0x01,0x90,
0x3e,0x4b,0x83,0x7a,0x80,0x3e,0x00,0x00,0x80,0x35,0x00,0x05,0x90,0x3e,0x48,0x00,
0x90,0x43,0x56,0x00,0x90,0x29,0x50,0x82,0x77,0xb0,0x40,0x7f,0x81,0x08,0x80,0x29,
0x00,0x1f,0x90,0x30,0x4b,0x83,0x5d,0x80,0x30,0x00,0x1e,0x80,0x3e,0x00,0x00,0x80,
0x43,0x00,0x01,0x90,0x35,0x4c,0x83,0x79,0x90,0x4a,0x43,0x00,0x90,0x4f,0x51,0x8b,
0x74,0x80,0x35,0x00,0x01,0x90,0x30,0x4c,0x83,0x7b,0xb0,0x40,0x00,0x83,0x78,0x80,
0x4a,0x00,0x00,0x80,0x4f,0x00,0x00,0x80,0x30,0x00,0x05,0x90,0x2b,0x50,0x83,0x58,
0xb0,0x40,0x7f,0x27,0x80,0x2b,0x00,0x1f,0x90,0x3e,0x4b,0x00,0x90,0x32,0x4b,0x83,
0x5d,0x80,0x3e,0x00,0x00,0x80,0x32,0x00,0x1f,0x90,0x43,0x4c,0x00,0x90,0x37,0x4c,
0x83,0x5a,0x80,0x43,0x00,0x1f,0x90,0x45,0x4b,0x83,0x5f,0x80,0x45,0x00,0x1f,0x90,
0x47,0x4e,0x83,0x5f,0x80,0x47,0x00,0x1f,0x90,0x48,0x4b,0x83,0x5a,0x80,0x48,0x00,
0x1e,0x80,0x37,0x00,0x01,0x90,0x47,0x4c,0x00,0x90,0x37,0x4c,0x82,0x21,0xb0,0x40,
0x00,0x81,0x39,0x80,0x47,0x00,0x00,0x80,0x37,0x00,0x1f,0x90,0x45,0x4b,0x00,0x90,
0x32,0x4b,0x83,0x5c,0x80,0x45,0x00,0x00,0x80,0x32,0x00,0x23,0x90,0x43,0x50,0x00,
0x90,0x29,0x50,0x82,0x7e,0xb0,0x40,0x7f,0x81,0x01,0x80,0x29,0x00,0x1f,0x90,0x30,
0x4b,0x83,0x5d,0x80,0x30,0x00,0x1e,0x80,0x43,0x00,0x01,0x90,0x3e,0x4c,0x00,0x90,
0x35,0x4b,0x87,0x76,0x80,0x3e,0x00,0x01,0x90,0x3c,0x4e,0x87,0x76,0x80,0x3c,0x00,
0x01,0x90,0x43,0x4c,0x84,0x12,0xb0,0x40,0x00,0x83,0x61,0x80,0x43,0x00,0x00,0x80,
0x35,0x00,0x05,0x90,0x3e,0x50,0x00,0x90,0x27,0x4f,0x81,0x67,0xb0,0x40,0x7f,0x82,
0x18,0x80,0x27,0x00,0x1f,0x90,0x2e,0x4b,0x83,0x5d,0x80,0x2e,0x00,0x1f,0x90,0x33,
0x4c,0x83,0x78,0x80,0x3e,0x00,0x01,0x90,0x37,0x4b,0x8b,0x74,0x80,0x33,0x00,0x01,
0x90,0x33,0x4c,0x83,0x78,0x80,0x37,0x00,0x01,0x90,0x37,0x4b,0x81,0x0c,0xb0,0x40,
0x00,0x82,0x50,0x80,0x37,0x00,0x1e,0x80,0x33,0x00,0x05,0x90,0x29,0x50,0x82,0x79,
0xb0,0x40,0x7f,0x81,0x06,0x80,0x29,0x00,0x1f,0x90,0x30,0x4b,0x83,0x5d,0x80,0x30,
0x00,0x1f,0x90,0x35,0x4c,0x8b,0x75,0x90,0x3c,0x4b,0x83,0x78,0x80,0x35,0x00,0x01,
0x90,0x30,0x4c,0x83,0x5a,0x80,0x30,0x00,0x18,0xb0,0x40,0x00,0x06,0x80,0x3c,0x00,
0x01,0x90,0x3c,0x4b,0x00,0x90,0x35,0x4b,0x83,0x5c,0x80,0x3c,0x00,0x00,0x80,0x35,
0x00,0x23,0x90,0x3b,0x50,0x00,0x90,0x2b,0x50,0x81,0x52,0xb0,0x40,0x7f,0x82,0x2d,
0x80,0x3b,0x00,0x00,0x80,0x2b,0x00,0x1f,0x90,0x3e,0x4b,0x00,0x90,0x32,0x4b,0x83,
0x5d,0x80,0x3e,0x00,0x00,0x80,0x32,0x00,0x1f,0x90,0x43,0x4c,0x00,0x90,0x37,0x4b,
0x8b,0x74,0x80,0x43,0x00,0x01,0x90,0x39,0x4b,0x87,0x71,0x80,0x39,0x00,0x01,0x90,
0x3b,0x4b,0x3b,0xb0,0x40,0x00,0x83,0x21,0x80,0x3b,0x00,0x1e,0x80,0x37,0x00,0x05,
0x90,0x2b,0x50,0x81,0x52,0xb0,0x40,0x7f,0x82,0x2d,0x80,0x2b,0x00,0x1f,0x90,0x32,
0x4b,0x83,0x5d,0x80,0x32,0x00,0x1f,0x90,0x37,0x4b,0x83,0x79,0x90,0x3e,0x4b,0x87,
0x5d,0x80,0x3e,0x00,0x1f,0x90,0x43,0x4b,0x88,0x2d,0xb0,0x40,0x00,0x83,0x3f,0x80,
0x43,0x00,0x00,0x80,0x37,0x00,0x05,0x90,0x2b,0x50,0x83,0x58,0xb0,0x40,0x7f,0x27,
0x80,0x2b,0x00,0x1f,0x90,0x3e,0x4b,0x00,0x90,0x32,0x4b,0x83,0x5d,0x80,0x3e,0x00,
0x00,0x80,0x32,0x00,0x1f,0x90,0x43,0x4c,0x00,0x90,0x37,0x4c,0x83,0x5a,0x80,0x43,
0x00,0x1f,0x90,0x45,0x4b,0x83,0x5f,0x80,0x45,0x00,0x1f,0x90,0x47,0x4e,0x83,0x5f,
0x80,0x47,0x00,0x1f,0x90,0x48,0x4b,0x83,0x5a,0x80,0x48,0x00,0x1e,0x80,0x37,0x00,
0x01,0x90,0x47,0x4c,0x00,0x90,0x37,0x4c,0x82,0x21,0xb0,0x40,0x00,0x81,0x39,0x80,
0x47,0x00,0x00,0x80,0x37,0x00,0x1f,0x90,0x45,0x4b,0x00,0x90,0x32,0x4b,0x83,0x5c,
0x80,0x45,0x00,0x00,0x80,0x32,0x00,0x23,0x90,0x43,0x50,0x00,0x90,0x29,0x50,0x82,
0x7e,0xb0,0x40,0x7f,0x81,0x01,0x80,0x29,0x00,0x1f,0x90,0x30,0x4b,0x83,0x5d,0x80,
0x30,0x00,0x1e,0x80,0x43,0x00,0x01,0x90,0x3e,0x4c,0x00,0x90,0x35,0x4b,0x87,0x76,
0x80,0x3e,0x00,0x01,0x90,0x3c,0x4e,0x87,0x76,0x80,0x3c,0x00,0x01,0x90,0x43,0x4c,
0x84,0x12,0xb0,0x40,0x00,0x83,0x61,0x80,0x43,0x00,0x00,0x80,0x35,0x00,0x05,0x90,
0x3e,0x50,0x00,0x90,0x27,0x4f,0x82,0x40,0xb0,0x40,0x7f,0x81,0x3f,0x80,0x27,0x00,
0x1f,0x90,0x2e,0x4b,0x83,0x5d,0x80,0x2e,0x00,0x1f,0x90,0x33,0x4c,0x83,0x78,0x80,
0x3e,0x00,0x01,0x90,0x37,0x3f,0x87,0x7b,0x80,0x37,0x00,0x01,0x90,0x37,0x4b,0x83,
0x78,0x80,0x33,0x00,0x01,0x90,0x33,0x4c,0x83,0x29,0xb0,0x40,0x00,0x4f,0x80,0x37,
0x00,0x01,0x90,0x37,0x4b,0x83,0x5c,0x80,0x37,0x00,0x1e,0x80,0x33,0x00,0x05,0x90,
0x29,0x50,0x83,0x5d,0xb0,0x40,0x7f,0x22,0x80,0x29,0x00,0x1f,0x90,0x30,0x4b,0x87,
0x74,0x80,0x30,0x00,0x01,0x90,0x3c,0x3f,0x00,0x90,0x35,0x4b,0x87,0x7b,0x80,0x3c,
0x00,0x00,0x80,0x35,0x00,0x01,0x90,0x3c,0x4b,0x00,0x90,0x30,0x4b,0x87,0x5b,0xb0,
0x40,0x00,0x16,0x80,0x3c,0x00,0x01,0x90,0x3c,0x4b,0x83,0x5c,0x80,0x3c,0x00,0x1e,
0x80,0x30,0x00,0x05,0x90,0x3b,0x50,0x00,0x90,0x2b,0x50,0x81,0x7e,0xb0,0x40,0x7f,
0x82,0x01,0x80,0x3b,0x00,0x00,0x80,0x2b,0x00,0x1f,0x90,0x3e,0x4b,0x00,0x90,0x32,
0x4b,0x83,0x5d,0x80,0x3e,0x00,0x1f,0x90,0x43,0x4c,0x83,0x78,0x80,0x32,0x00,0x01,
0x90,0x37,0x4b,0x87,0x7b,0x80,0x43,0x00,0x00,0x80,0x37,0x00,0x01,0x90,0x39,0x4b,
0x00,0x90,0x32,0x4b,0x87,0x71,0x80,0x39,0x00,0x01,0x90,0x3b,0x4b,0x4c,0xb0,0x40,
0x00,0x83,0x10,0x80,0x3b,0x00,0x1e,0x80,0x32,0x00,0x05,0x90,0x2b,0x50,0x83,0x31,
0xb0,0x40,0x7f,0x4e,0x80,0x2b,0x00,0x1f,0x90,0x32,0x4b,0x83,0x5d,0x80,0x32,0x00,
0x1f,0x90,0x37,0x4b,0x83,0x79,0x90,0x3b,0x4b,0x91,0x1a,0xb0,0x40,0x00,0x82,0x4e,
0x80,0x3b,0x00,0x00,0x80,0x37,0x00,0x05,0x90,0x30,0x50,0x82,0x2c,0xb0,0x40,0x7f,
0x81,0x53,0x80,0x30,0x00,0x1f,0x90,0x37,0x4b,0x83,0x5d,0x80,0x37,0x00,0x1f,0x90,
0x3c,0x4b,0x83,0x79,0x90,0x43,0x4b,0x83,0x5f,0x80,0x43,0x00,0x1f,0x90,0x4c,0x4e,
0x83,0x5f,0x80,0x4c,0x00,0x1f,0x90,0x4a,0x4b,0x83,0x5a,0x80,0x4a,0x00,0x1f,0x90,
0x48,0x4c,0x82,0x1d,0xb0,0x40,0x00,0x81,0x3d,0x80,0x48,0x00,0x1f,0x90,0x4c,0x4b,
0x83,0x5c,0x80,0x4c,0x00,0x1e,0x80,0x3c,0x00,0x05,0x90,0x4a,0x50,0x00,0x90,0x2f,
0x50,0x81,0x54,0xb0,0x40,0x7f,0x82,0x2b,0x80,0x2f,0x00,0x1f,0x90,0x37,0x4b,0x83,
0x5d,0x80,0x37,0x00,0x1f,0x90,0x3b,0x4c,0x83,0x78,0x80,0x4a,0x00,0x01,0x90,0x43,
0x4b,0x87,0x7b,0x80,0x3b,0x00,0x01,0x90,0x37,0x4b,0x83,0x5a,0x80,0x37,0x00,0x1f,
0x90,0x3b,0x4c,0x82,0x21,0xb0,0x40,0x00,0x85,0x52,0x80,0x43,0x00,0x00,0x80,0x3b,
0x00,0x05,0x90,0x2d,0x50,0x81,0x7f,0xb0,0x40,0x7f,0x82,0x00,0x80,0x2d,0x00,0x1f,
0x90,0x34,0x4b,0x83,0x5d,0x80,0x34,0x00,0x1f,0x90,0x39,0x4c,0x83,0x79,0x90,0x40,
0x4b,0x83,0x5f,0x80,0x40,0x00,0x1f,0x90,0x4a,0x4e,0x83,0x5f,0x80,0x4a,0x00,0x1f,
0x90,0x48,0x4b,0x83,0x5a,0x80,0x48,0x00,0x1e,0x80,0x39,0x00,0x01,0x90,0x47,0x4c,
0x00,0x90,0x34,0x4c,0x82,0x76,0xb0,0x40,0x00,0x64,0x80,0x47,0x00,0x1f,0x90,0x48,
0x4b,0x83,0x5c,0x80,0x48,0x00,0x1e,0x80,0x34,0x00,0x05,0x90,0x47,0x50,0x00,0x90,
0x2b,0x50,0x82,0x38,0xb0,0x40,0x7f,0x81,0x47,0x80,0x2b,0x00,0x1f,0x90,0x32,0x4b,
0x83,0x5d,0x80,0x32,0x00,0x1f,0x90,0x37,0x4c,0x83,0x78,0x80,0x47,0x00,0x01,0x90,
0x43,0x4b,0x8b,0x74,0x80,0x37,0x00,0x01,0x90,0x32,0x4c,0x82,0x16,0xb0,0x40,0x00,
0x85,0x5d,0x80,0x43,0x00,0x00,0x80,0x32,0x00,0x05,0x90,0x30,0x50,0x82,0x2c,0xb0,
0x40,0x7f,0x81,0x53,0x80,0x30,0x00,0x1f,0x90,0x37,0x4b,0x83,0x5d,0x80,0x37,0x00,
0x1f,0x90,0x3c,0x4b,0x83,0x79,0x90,0x43,0x4b,0x83,0x5f,0x80,0x43,0x00,0x1f,0x90,
0x4c,0x4e,0x83,0x5f,0x80,0x4c,0x00,0x1f,0x90,0x4a,0x4b,0x83,0x5a,0x80,0x4a,0x00,
0x1f,0x90,0x48,0x4c,0x82,0x1d,0xb0,0x40,0x00,0x81,0x3d,0x80,0x48,0x00,0x1f,0x90,
0x4c,0x4b,0x83,0x5c,0x80,0x4c,0x00,0x1e,0x80,0x3c,0x00,0x05,0x90,0x4a,0x50,0x00,
0x90,0x2f,0x50,0x81,0x54,0xb0,0x40,0x7f,0x82,0x2b,0x80,0x2f,0x00,0x1f,0x90,0x37,
0x4b,0x83,0x5d,0x80,0x37,0x00,0x1f,0x90,0x3b,0x4c,0x83,0x78,0x80,0x4a,0x00,0x01,
0x90,0x43,0x4b,0x8b,0x74,0x80,0x3b,0x00,0x01,0x90,0x3b,0x4c,0x82,0x21,0xb0,0x40,
0x00,0x85,0x52,0x80,0x43,0x00,0x00,0x80,0x3b,0x00,0x05,0x90,0x2e,0x50,0x82,0x1c,
0xb0,0x40,0x7f,0x81,0x63,0x80,0x2e,0x00,0x1f,0x90,0x37,0x4b,0x83,0x5d,0x80,0x37,
0x00,0x1f,0x90,0x3a,0x4c,0x87,0x77,0x90,0x48,0x4e,0x83,0x5f,0x80,0x48,0x00,0x1f,
0x90,0x4a,0x4b,0x83,0x5a,0x80,0x4a,0x00,0x1e,0x80,0x3a,0x00,0x01,0x90,0x48,0x4c,
0x00,0x90,0x3a,0x4c,0x83,0x05,0xb0,0x40,0x00,0x55,0x80,0x48,0x00,0x1f,0x90,0x47,
0x4b,0x83,0x5c,0x80,0x47,0x00,0x1e,0x80,0x3a,0x00,0x05,0x90,0x2d,0x50,0x82,0x7b,
0xb0,0x40,0x7f,0x81,0x04,0x80,0x2d,0x00,0x1f,0x90,0x39,0x4b,0x83,0x7c,0x90,0x43,
0x4c,0x35,0xb0,0x40,0x00,0x87,0x41,0x80,0x43,0x00,0x00,0x80,0x39,0x00,0x01,0x90,
0x40,0x4e,0x00,0x90,0x32,0x4e,0x82,0x1f,0xb0,0x40,0x7f,0x81,0x40,0x80,0x32,0x00,
0x1f,0x90,0x39,0x4b,0x88,0x51,0xb0,0x40,0x00,0x83,0x1b,0x80,0x40,0x00,0x00,0x80,
0x39,0x00,0x05,0x90,0x2b,0x50,0x83,0x1d,0xb0,0x40,0x7f,0x62,0x80,0x2b,0x00,0x1f,
0x90,0x3e,0x4b,0x00,0x90,0x32,0x4b,0x83,0x5d,0x80,0x3e,0x00,0x1f,0x90,0x43,0x4c,
0x83,0x5a,0x80,0x43,0x00,0x1f,0x90,0x45,0x4b,0x83,0x5f,0x80,0x45,0x00,0x1f,0x90,
0x47,0x4e,0x83,0x5f,0x80,0x47,0x00,0x1f,0x90,0x48,0x4b,0x83,0x5a,0x80,0x48,0x00,
0x1e,0x80,0x32,0x00,0x01,0x90,0x47,0x4c,0x00,0x90,0x37,0x4c,0x83,0x23,0xb0,0x40,
0x00,0x37,0x80,0x47,0x00,0x00,0x80,0x37,0x00,0x1f,0x90,0x45,0x4b,0x00,0x90,0x32,
0x4b,0x83,0x5c,0x80,0x45,0x00,0x00,0x80,0x32,0x00,0x23,0x90,0x43,0x50,0x00,0x90,
0x29,0x50,0x82,0x37,0xb0,0x40,0x7f,0x81,0x48,0x80,0x29,0x00,0x1f,0x90,0x30,0x4b,
0x83,0x5d,0x80,0x30,0x00,0x1e,0x80,0x43,0x00,0x01,0x90,0x3e,0x4c,0x00,0x90,0x35,
0x4c,0x87,0x76,0x80,0x3e,0x00,0x01,0x90,0x3c,0x4e,0x83,0x7d,0x80,0x35,0x00,0x01,
0x90,0x30,0x4b,0x83,0x5a,0x80,0x30,0x00,0x1e,0x80,0x3c,0x00,0x01,0x90,0x43,0x4c,
0x00,0x90,0x35,0x4c,0x81,0x54,0xb0,0x40,0x00,0x86,0x1f,0x80,0x43,0x00,0x00,0x80,
0x35,0x00,0x05,0x90,0x3e,0x50,0x00,0x90,0x27,0x4f,0x82,0x45,0xb0,0x40,0x7f,0x81,
0x3a,0x80,0x27,0x00,0x1f,0x90,0x2e,0x4b,0x83,0x5d,0x80,0x2e,0x00,0x1f,0x90,0x33,
0x4c,0x83,0x78,0x80,0x3e,0x00,0x01,0x90,0x37,0x4b,0x8b,0x74,0x80,0x33,0x00,0x01,
0x90,0x2e,0x4c,0x83,0x78,0x80,0x37,0x00,0x01,0x90,0x37,0x4b,0x12,0xb0,0x40,0x00,
0x83,0x4a,0x80,0x37,0x00,0x1e,0x80,0x2e,0x00,0x05,0x90,0x29,0x50,0x83,0x69,0xb0,
0x40,0x7f,0x16,0x80,0x29,0x00,0x1f,0x90,0x30,0x4b,0x83,0x5d,0x80,0x30,0x00,0x1f,
0x90,0x35,0x4c,0x8f,0x6d,0x80,0x35,0x00,0x01,0x90,0x30,0x4c,0x83,0x52,0xb0,0x40,
0x00,0x27,0x90,0x3c,0x4b,0x83,0x5c,0x80,0x3c,0x00,0x1e,0x80,0x30,0x00,0x05,0x90,
0x3b,0x50,0x00,0x90,0x2b,0x50,0x82,0x5b,0xb0,0x40,0x7f,0x81,0x24,0x80,0x3b,0x00,
0x00,0x80,0x2b,0x00,0x1f,0x90,0x3e,0x4b,0x00,0x90,0x32,0x4b,0x83,0x5d,0x80,0x3e,
0x00,0x00,0x80,0x32,0x00,0x1f,0x90,0x43,0x4c,0x00,0x90,0x37,0x4c,0x8b,0x74,0x80,
0x43,0x00,0x01,0x90,0x39,0x4b,0x83,0x78,0x80,0x37,0x00,0x01,0x90,0x37,0x4c,0x82,
0x3a,0xb0,0x40,0x00,0x81,0x3e,0x80,0x39,0x00,0x01,0x90,0x3b,0x4b,0x83,0x5c,0x80,
0x3b,0x00,0x1e,0x80,0x37,0x00,0x05,0x90,0x2b,0x50,0x82,0x4e,0xb0,0x40,0x7f,0x85,
0x4b,0x80,0x2b,0x00,0x01,0x90,0x32,0x4b,0x83,0x79,0x90,0x3e,0x4b,0x8f,0x60,0xb0,
0x40,0x00,0x84,0x08,0x80,0x3e,0x00,0x00,0x80,0x32,0x00,0x05,0x90,0x2b,0x50,0x82,
0x25,0xb0,0x40,0x7f,0x81,0x5a,0x80,0x2b,0x00,0x1f,0x90,0x3e,0x4b,0x00,0x90,0x32,
0x4b,0x83,0x5d,0x80,0x3e,0x00,0x1f,0x90,0x43,0x4c,0x83,0x5a,0x80,0x43,0x00,0x1f,
0x90,0x45,0x4b,0x83,0x5f,0x80,0x45,0x00,0x1f,0x90,0x47,0x4e,0x83,0x5f,0x80,0x47,
0x00,0x1f,0x90,0x48,0x4b,0x83,0x5a,0x80,0x48,0x00,0x1e,0x80,0x32,0x00,0x01,0x90,
0x47,0x4c,0x00,0x90,0x37,0x4c,0x82,0x7e,0xb0,0x40,0x00,0x5c,0x80,0x47,0x00,0x00,
0x80,0x37,0x00,0x1f,0x90,0x45,0x4b,0x00,0x90,0x32,0x4b,0x83,0x5c,0x80,0x45,0x00,
0x00,0x80,0x32,0x00,0x23,0x90,0x43,0x50,0x00,0x90,0x29,0x50,0x82,0x65,0xb0,0x40,
0x7f,0x81,0x1a,0x80,0x29,0x00,0x1f,0x90,0x30,0x4b,0x83,0x5d,0x80,0x30,0x00,0x1e,
0x80,0x43,0x00,0x01,0x90,0x3e,0x4c,0x00,0x90,0x35,0x4c,0x87,0x76,0x80,0x3e,0x00,
0x01,0x90,0x3c,0x4e,0x83,0x7d,0x80,0x35,0x00,0x01,0x90,0x30,0x4b,0x83,0x78,0x80,
0x3c,0x00,0x01,0x90,0x43,0x4c,0x82,0x27,0xb0,0x40,0x00,0x85,0x4c,0x80,0x43,0x00,
0x00,0x80,0x30,0x00,0x05,0x90,0x3e,0x50,0x00,0x90,0x27,0x4f,0x82,0x03,0xb0,0x40,
0x7f,0x81,0x7c,0x80,0x27,0x00,0x1f,0x90,0x2e,0x4b,0x83,0x5d,0x80,0x2e,0x00,0x1f,
0x90,0x33,0x4c,0x83,0x78,0x80,0x3e,0x00,0x01,0x90,0x37,0x3f,0x87,0x7c,0x90,0x3c,
0x4b,0x1e,0x80,0x37,0x00,0x83,0x5a,0x80,0x33,0x00,0x01,0x90,0x33,0x4c,0x83,0x78,
0x80,0x3c,0x00,0x01,0x90,0x3a,0x4b,0x09,0xb0,0x40,0x00,0x83,0x53,0x80,0x3a,0x00,
0x1e,0x80,0x33,0x00,0x05,0x90,0x29,0x50,0x82,0x43,0xb0,0x40,0x7f,0x81,0x3c,0x80,
0x29,0x00,0x1f,0x90,0x30,0x4b,0x83,0x5d,0x80,0x30,0x00,0x1f,0x90,0x35,0x4c,0x87,
0x76,0x80,0x35,0x00,0x83,0x7f,0x90,0x3c,0x4b,0x83,0x79,0x90,0x30,0x4c,0x83,0x78,
0x80,0x3c,0x00,0x01,0x90,0x3c,0x4b,0x51,0xb0,0x40,0x00,0x83,0x0b,0x80,0x3c,0x00,
0x1e,0x80,0x30,0x00,0x05,0x90,0x3b,0x50,0x00,0x90,0x2b,0x50,0x82,0x5b,0xb0,0x40,
0x7f,0x81,0x24,0x80,0x3b,0x00,0x00,0x80,0x2b,0x00,0x1f,0x90,0x3e,0x4b,0x00,0x90,
0x32,0x4b,0x83,0x5d,0x80,0x3e,0x00,0x00,0x80,0x32,0x00,0x1f,0x90,0x43,0x4c,0x00,
0x90,0x37,0x4c,0x8b,0x74,0x80,0x43,0x00,0x01,0x90,0x39,0x4b,0x83,0x78,0x80,0x37,
0x00,0x01,0x90,0x37,0x4c,0x82,0x3a,0xb0,0x40,0x00,0x81,0x3e,0x80,0x39,0x00,0x01,
0x90,0x3b,0x4b,0x83,0x5c,0x80,0x3b,0x00,0x1e,0x80,0x37,0x00,0x05,0x90,0x2b,0x50,
0x83,0x16,0xb0,0x40,0x7f,0x69,0x80,0x2b,0x00,0x1f,0x90,0x32,0x4b,0x83,0x5d,0x80,
0x32,0x00,0x1f,0x90,0x37,0x4b,0x8b,0x75,0x90,0x3b,0x43,0x00,0x90,0x43,0x4d,0x88,
0x15,0xb0,0x40,0x00,0x83,0x57,0x80,0x3b,0x00,0x00,0x80,0x43,0x00,0x00,0x80,0x37,
0x00,0x05,0x90,0x29,0x43,0x82,0x7b,0xb0,0x40,0x7f,0x81,0x04,0x80,0x29,0x00,0x1f,
0x90,0x30,0x3e,0x83,0x5d,0x80,0x30,0x00,0x1f,0x90,0x35,0x3e,0x83,0x79,0x90,0x39,
0x36,0x00,0x90,0x41,0x44,0x87,0x7b,0x80,0x39,0x00,0x00,0x80,0x41,0x00,0x01,0x90,
0x39,0x2b,0x00,0x90,0x41,0x35,0x83,0x78,0x80,0x39,0x00,0x00,0x80,0x41,0x00,0x01,
0x90,0x39,0x2c,0x00,0x90,0x41,0x36,0x82,0x7b,0xb0,0x40,0x00,0x7d,0x80,0x39,0x00,
0x00,0x80,0x41,0x00,0x01,0x90,0x39,0x2c,0x00,0x90,0x41,0x36,0x83,0x7a,0x80,0x41,
0x00,0x00,0x80,0x35,0x00,0x05,0x90,0x29,0x41,0x1a,0x80,0x39,0x00,0x83,0x20,0xb0,
0x40,0x7f,0x64,0x90,0x39,0x2d,0x00,0x90,0x41,0x37,0x83,0x7b,0x80,0x39,0x00,0x00,
0x80,0x41,0x00,0x01,0x90,0x39,0x2e,0x00,0x90,0x41,0x38,0x83,0x78,0x80,0x39,0x00,
0x00,0x80,0x41,0x00,0x01,0x90,0x39,0x2f,0x00,0x90,0x41,0x39,0x83,0x7d,0x80,0x41,
0x00,0x00,0x80,0x29,0x00,0x01,0x90,0x30,0x43,0x1e,0x80,0x39,0x00,0x83,0x60,0x90,
0x39,0x30,0x00,0x90,0x41,0x3a,0x83,0x78,0x80,0x39,0x00,0x00,0x80,0x41,0x00,0x00,
0x80,0x30,0x00,0x01,0x90,0x39,0x30,0x00,0x90,0x41,0x3a,0x00,0x90,0x35,0x44,0x83,
0x37,0xb0,0x40,0x00,0x41,0x80,0x39,0x00,0x00,0x80,0x41,0x00,0x01,0x90,0x39,0x31,
0x00,0x90,0x41,0x3f,0x83,0x7a,0x80,0x35,0x00,0x05,0x90,0x27,0x44,0x1a,0x80,0x39,
0x00,0x00,0x80,0x41,0x00,0x82,0x10,0xb0,0x40,0x7f,0x81,0x55,0x80,0x27,0x00,0x1f,
0x90,0x2e,0x45,0x83,0x5d,0x80,0x2e,0x00,0x1f,0x90,0x33,0x46,0x83,0x79,0x90,0x3a,
0x33,0x00,0x90,0x43,0x41,0x83,0x7d,0x80,0x43,0x00,0x1f,0x80,0x3a,0x00,0x83,0x60,
0x90,0x3a,0x34,0x00,0x90,0x43,0x3e,0x83,0x78,0x80,0x43,0x00,0x00,0x80,0x33,0x00,
0x01,0x90,0x33,0x48,0x1e,0x80,0x3a,0x00,0x82,0x68,0xb0,0x40,0x00,0x73,0x90,0x3a,
0x35,0x00,0x90,0x43,0x3f,0x83,0x7a,0x80,0x43,0x00,0x00,0x80,0x33,0x00,0x05,0x90,
0x27,0x48,0x1a,0x80,0x3a,0x00,0x81,0x12,0xb0,0x40,0x7f,0x82,0x72,0x90,0x3a,0x36,
0x00,0x90,0x43,0x40,0x83,0x7b,0x80,0x3a,0x00,0x00,0x80,0x43,0x00,0x01,0x90,0x3a,
0x37,0x00,0x90,0x43,0x41,0x83,0x78,0x80,0x3a,0x00,0x00,0x80,0x43,0x00,0x01,0x90,
0x3a,0x37,0x00,0x90,0x43,0x41,0x83,0x7d,0x80,0x3a,0x00,0x00,0x80,0x43,0x00,0x01,
0x90,0x3a,0x38,0x00,0x90,0x43,0x42,0x83,0x7d,0x80,0x3a,0x00,0x00,0x80,0x43,0x00,
0x01,0x90,0x3a,0x38,0x00,0x90,0x43,0x42,0x83,0x78,0x80,0x3a,0x00,0x00,0x80,0x43,
0x00,0x01,0x90,0x3a,0x39,0x00,0x90,0x43,0x43,0x83,0x2a,0xb0,0x40,0x00,0x4e,0x80,
0x3a,0x00,0x00,0x80,0x43,0x00,0x01,0x90,0x3a,0x44,0x00,0x90,0x43,0x3f,0x83,0x7a,
0x80,0x27,0x00,0x05,0x90,0x26,0x4c,0x1a,0x80,0x3a,0x00,0x00,0x80,0x43,0x00,0x82,
0x69,0xb0,0x40,0x7f,0x7c,0x80,0x26,0x00,0x1f,0x90,0x2d,0x4e,0x83,0x5d,0x80,0x2d,
0x00,0x1f,0x90,0x32,0x4e,0x83,0x79,0x90,0x3c,0x53,0x00,0x90,0x43,0x4e,0x87,0x7b,
0x80,0x3c,0x00,0x00,0x80,0x43,0x00,0x01,0x90,0x3c,0x49,0x00,0x90,0x43,0x53,0x83,
0x78,0x80,0x32,0x00,0x01,0x90,0x32,0x50,0x83,0x2c,0xb0,0x40,0x00,0x4c,0x80,0x3c,
0x00,0x00,0x80,0x43,0x00,0x01,0x90,0x3c,0x4a,0x00,0x90,0x43,0x58,0x83,0x5c,0x80,
0x3c,0x00,0x1e,0x80,0x43,0x00,0x00,0x80,0x32,0x00,0x05,0x90,0x26,0x51,0x82,0x5a,
0xb0,0x40,0x7f,0x81,0x25,0x80,0x26,0x00,0x1f,0x90,0x3c,0x4b,0x00,0x90,0x45,0x59,
0x00,0x90,0x2d,0x52,0x83,0x5d,0x80,0x2d,0x00,0x1f,0x90,0x32,0x53,0x83,0x78,0x80,
0x3c,0x00,0x00,0x80,0x45,0x00,0x01,0x90,0x3c,0x4c,0x00,0x90,0x45,0x56,0x87,0x7b,
0x80,0x3c,0x00,0x00,0x80,0x45,0x00,0x01,0x90,0x3c,0x4d,0x00,0x90,0x45,0x57,0x83,
0x78,0x80,0x32,0x00,0x01,0x90,0x32,0x55,0x83,0x34,0xb0,0x40,0x00,0x83,0x5f,0x80,
0x3c,0x00,0x00,0x80,0x45,0x00,0x00,0x80,0x32,0x00,0x64,0xb0,0x64,0x00,0x00,0xb0,
0x65,0x00,0x00,0xb0,0x64,0x00,0x00,0xb0,0x65,0x00,0x01,0xb0,0x06,0x0c,0x00,0xb0,
0x06,0x0c,0x01,0xb0,0x26,0x00,0x00,0xb0,0x26,0x00,0x05,0x90,0x2b,0x50,0x81,0x6e,
0xb0,0x40,0x7f,0x82,0x0b,0x80,0x2b,0x00,0x1f,0x90,0x32,0x4b,0x83,0x5d,0x80,0x32,
0x00,0x1f,0x90,0x37,0x4b,0x83,0x79,0x90,0x39,0x4b,0x87,0x7b,0x80,0x39,0x00,0x01,
0x90,0x3b,0x4b,0x87,0x71,0x80,0x3b,0x00,0x01,0x90,0x3e,0x4b,0x3b,0xb0,0x40,0x00,
0x83,0x3f,0x80,0x3e,0x00,0x00,0x80,0x37,0x00,0x05,0x90,0x3e,0x48,0x00,0x90,0x43,
0x56,0x00,0x90,0x2b,0x50,0x82,0x03,0xb0,0x40,0x7f,0x81,0x7c,0x80,0x2b,0x00,0x1f,
0x90,0x32,0x4b,0x83,0x5d,0x80,0x32,0x00,0x1e,0x80,0x3e,0x00,0x00,0x80,0x43,0x00,
0x01,0x90,0x37,0x4b,0x83,0x79,0x90,0x4a,0x43,0x00,0x90,0x4f,0x51,0x8f,0x0b,0xb0,
0x40,0x00,0x84,0x5d,0x80,0x4a,0x00,0x00,0x80,0x4f,0x00,0x00,0x80,0x37,0x00,0x05,
0x90,0x29,0x50,0x83,0x23,0xb0,0x40,0x7f,0x5c,0x80,0x29,0x00,0x1f,0x90,0x30,0x4b,
0x83,0x5d,0x80,0x30,0x00,0x1f,0x90,0x35,0x4b,0x83,0x79,0x90,0x39,0x4b,0x87,0x7b,
0x80,0x39,0x00,0x01,0x90,0x3b,0x4b,0x87,0x71,0x80,0x3b,0x00,0x01,0x90,0x3e,0x4b,
0x83,0x7a,0x80,0x3e,0x00,0x00,0x80,0x35,0x00,0x05,0x90,0x3e,0x48,0x00,0x90,0x43,
0x56,0x00,0x90,0x29,0x50,0x83,0x7f,0x80,0x29,0x00,0x1f,0x90,0x30,0x4b,0x83,0x5d,
0x80,0x30,0x00,0x1e,0x80,0x3e,0x00,0x00,0x80,0x43,0x00,0x01,0x90,0x35,0x4c,0x83,
0x79,0x90,0x4a,0x43,0x00,0x90,0x4f,0x51,0x8b,0x74,0x80,0x35,0x00,0x01,0x90,0x30,
0x4c,0x83,0x25,0xb0,0x40,0x00,0x84,0x4e,0x80,0x4a,0x00,0x00,0x80,0x4f,0x00,0x00,
0x80,0x30,0x00,0x05,0x90,0x2b,0x50,0x81,0x52,0xb0,0x40,0x7f,0x82,0x2d,0x80,0x2b,
0x00,0x1f,0x90,0x32,0x4b,0x83,0x5d,0x80,0x32,0x00,0x1f,0x90,0x37,0x4b,0x83,0x79,
0x90,0x39,0x4b,0x87,0x7b,0x80,0x39,0x00,0x01,0x90,0x3b,0x4b,0x87,0x71,0x80,0x3b,
0x00,0x01,0x90,0x3e,0x4b,0x3b,0xb0,0x40,0x00,0x83,0x3f,0x80,0x3e,0x00,0x00,0x80,
0x37,0x00,0x05,0x90,0x3e,0x48,0x00,0x90,0x43,0x56,0x00,0x90,0x2b,0x50,0x81,0x52,
0xb0,0x40,0x7f,0x82,0x2d,0x80,0x2b,0x00,0x1f,0x90,0x32,0x4b,0x83,0x5d,0x80,0x32,
0x00,0x1e,0x80,0x3e,0x00,0x00,0x80,0x43,0x00,0x01,0x90,0x37,0x4b,0x83,0x79,0x90,
0x4a,0x43,0x00,0x90,0x4f,0x51,0x90,0x29,0xb0,0x40,0x00,0x83,0x3f,0x80,0x4a,0x00,
0x00,0x80,0x4f,0x00,0x00,0x80,0x37,0x00,0x05,0x90,0x29,0x50,0x82,0x56,0xb0,0x40,
0x7f,0x4d,0xb0,0x40,0x7f,0x5c,0x80,0x29,0x00,0x1f,0x90,0x30,0x4b,0x83,0x5d,0x80,
0x30,0x00,0x1f,0x90,0x35,0x4b,0x83,0x79,0x90,0x39,0x4b,0x87,0x7b,0x80,0x39,0x00,
0x01,0x90,0x3b,0x4b,0x87,0x07,0xb0,0x40,0x00,0x6a,0x80,0x3b,0x00,0x01,0x90,0x3e,
0x4b,0x83,0x7a,0x80,0x3e,0x00,0x00,0x80,0x35,0x00,0x05,0x90,0x3e,0x48,0x00,0x90,
0x43,0x56,0x00,0x90,0x29,0x50,0x82,0x77,0xb0,0x40,0x7f,0x81,0x08,0x80,0x29,0x00,
0x1f,0x90,0x30,0x4b,0x83,0x5d,0x80,0x30,0x00,0x1e,0x80,0x3e,0x00,0x00,0x80,0x43,
0x00,0x01,0x90,0x35,0x4c,0x83,0x79,0x90,0x4a,0x43,0x00,0x90,0x4f,0x51,0x8b,0x74,
0x80,0x35,0x00,0x01,0x90,0x30,0x4c,0x83,0x25,0xb0,0x40,0x00,0x56,0xb0,0x40,0x00,
0x83,0x78,0x80,0x4a,0x00,0x00,0x80,0x4f,0x00,0x00,0x80,0x30,0x00,0x05,0x90,0x27,
0x4f,0x82,0x78,0xb0,0x40,0x7f,0x81,0x07,0x80,0x27,0x00,0x1f,0x90,0x2e,0x4b,0x83,
0x5d,0x80,0x2e,0x00,0x1f,0x90,0x33,0x4b,0x83,0x79,0x90,0x39,0x4b,0x87,0x7b,0x80,
0x39,0x00,0x01,0x90,0x3a,0x4b,0x87,0x71,0x80,0x3a,0x00,0x01,0x90,0x3e,0x4b,0x62,
0xb0,0x40,0x00,0x83,0x18,0x80,0x3e,0x00,0x00,0x80,0x33,0x00,0x05,0x90,0x3e,0x48,
0x00,0x90,0x43,0x56,0x00,0x90,0x27,0x4f,0x82,0x78,0xb0,0x40,0x7f,0x81,0x07,0x80,
0x27,0x00,0x1f,0x90,0x2e,0x4b,0x83,0x5d,0x80,0x2e,0x00,0x1e,0x80,0x3e,0x00,0x00,
0x80,0x43,0x00,0x01,0x90,0x33,0x4b,0x83,0x79,0x90,0x4a,0x43,0x00,0x90,0x4f,0x51,
0x90,0x50,0xb0,0x40,0x00,0x83,0x18,0x80,0x4a,0x00,0x00,0x80,0x4f,0x00,0x00,0x80,
0x33,0x00,0x05,0x90,0x29,0x50,0x82,0x56,0xb0,0x40,0x7f,0x81,0x29,0x80,0x29,0x00,
0x1f,0x90,0x30,0x4b,0x83,0x5d,0x80,0x30,0x00,0x1f,0x90,0x35,0x4b,0x83,0x79,0x90,
0x39,0x4b,0x87,0x7b,0x80,0x39,0x00,0x01,0x90,0x3c,0x4b,0x87,0x07,0xb0,0x40,0x00,
0x6a,0x80,0x3c,0x00,0x01,0x90,0x3e,0x4b,0x83,0x7a,0x80,0x3e,0x00,0x00,0x80,0x35,
0x00,0x05,0x90,0x3e,0x48,0x00,0x90,0x43,0x56,0x00,0x90,0x29,0x50,0x82,0x77,0xb0,
0x40,0x7f,0x81,0x08,0x80,0x29,0x00,0x1f,0x90,0x30,0x4b,0x83,0x5d,0x80,0x30,0x00,
0x1e,0x80,0x3e,0x00,0x00,0x80,0x43,0x00,0x01,0x90,0x35,0x4c,0x83,0x79,0x90,0x4a,
0x43,0x00,0x90,0x4f,0x51,0x8b,0x74,0x80,0x35,0x00,0x01,0x90,0x30,0x4c,0x83,0x7b,
0xb0,0x40,0x00,0x83,0x78,0x80,0x4a,0x00,0x00,0x80,0x4f,0x00,0x00,0x80,0x30,0x00,
0x05,0x90,0x2b,0x50,0x83,0x58,0xb0,0x40,0x7f,0x27,0x80,0x2b,0x00,0x1f,0x90,0x3e,
0x4b,0x00,0x90,0x32,0x4b,0x83,0x5d,0x80,0x3e,0x00,0x00,0x80,0x32,0x00,0x1f,0x90,
0x43,0x4c,0x00,0x90,0x37,0x4c,0x83,0x5a,0x80,0x43,0x00,0x1f,0x90,0x45,0x4b,0x83,
0x5f,0x80,0x45,0x00,0x1f,0x90,0x47,0x4e,0x83,0x5f,0x80,0x47,0x00,0x1f,0x90,0x48,
0x4b,0x83,0x5a,0x80,0x48,0x00,0x1e,0x80,0x37,0x00,0x01,0x90,0x47,0x4c,0x00,0x90,
0x37,0x4c,0x82,0x21,0xb0,0x40,0x00,0x81,0x39,0x80,0x47,0x00,0x00,0x80,0x37,0x00,
0x1f,0x90,0x45,0x4b,0x00,0x90,0x32,0x4b,0x83,0x5c,0x80,0x45,0x00,0x00,0x80,0x32,
0x00,0x23,0x90,0x43,0x50,0x00,0x90,0x29,0x50,0x82,0x7e,0xb0,0x40,0x7f,0x81,0x01,
0x80,0x29,0x00,0x1f,0x90,0x30,0x4b,0x83,0x5d,0x80,0x30,0x00,0x1e,0x80,0x43,0x00,
0x01,0x90,0x3e,0x4c,0x00,0x90,0x35,0x4b,0x87,0x76,0x80,0x3e,0x00,0x01,0x90,0x3c,
0x4e,0x87,0x76,0x80,0x3c,0x00,0x01,0x90,0x43,0x4c,0x84,0x12,0xb0,0x40,0x00,0x83,
0x61,0x80,0x43,0x00,0x00,0x80,0x35,0x00,0x05,0x90,0x3e,0x50,0x00,0x90,0x27,0x4f,
0x81,0x67,0xb0,0x40,0x7f,0x82,0x18,0x80,0x27,0x00,0x1f,0x90,0x2e,0x4b,0x83,0x5d,
0x80,0x2e,0x00,0x1f,0x90,0x33,0x4c,0x83,0x78,0x80,0x3e,0x00,0x01,0x90,0x37,0x4b,
0x8b,0x74,0x80,0x33,0x00,0x01,0x90,0x33,0x4c,0x83,0x78,0x80,0x37,0x00,0x01,0x90,
0x37,0x4b,0x81,0x0c,0xb0,0x40,0x00,0x82,0x50,0x80,0x37,0x00,0x1e,0x80,0x33,0x00,
0x05,0x90,0x29,0x50,0x82,0x79,0xb0,0x40,0x7f,0x81,0x06,0x80,0x29,0x00,0x1f,0x90,
0x30,0x4b,0x83,0x5d,0x80,0x30,0x00,0x1f,0x90,0x35,0x4c,0x8b,0x75,0x90,0x3c,0x4b,
0x83,0x78,0x80,0x35,0x00,0x01,0x90,0x30,0x4c,0x83,0x5a,0x80,0x30,0x00,0x18,0xb0,
0x40,0x00,0x06,0x80,0x3c,0x00,0x01,0x90,0x3c,0x4b,0x00,0x90,0x35,0x4b,0x83,0x5c,
0x80,0x3c,0x00,0x00,0x80,0x35,0x00,0x23,0x90,0x3b,0x50,0x00,0x90,0x2b,0x50,0x81,
0x52,0xb0,0x40,0x7f,0x82,0x2d,0x80,0x3b,0x00,0x00,0x80,0x2b,0x00,0x1f,0x90,0x3e,
0x4b,0x00,0x90,0x32,0x4b,0x83,0x5d,0x80,0x3e,0x00,0x00,0x80,0x32,0x00,0x1f,0x90,
0x43,0x4c,0x00,0x90,0x37,0x4b,0x8b,0x74,0x80,0x43,0x00,0x01,0x90,0x39,0x4b,0x87,
0x71,0x80,0x39,0x00,0x01,0x90,0x3b,0x4b,0x3b,0xb0,0x40,0x00,0x83,0x21,0x80,0x3b,
0x00,0x1e,0x80,0x37,0x00,0x05,0x90,0x2b,0x50,0x81,0x52,0xb0,0x40,0x7f,0x82,0x2d,
0x80,0x2b,0x00,0x1f,0x90,0x32,0x4b,0x83,0x5d,0x80,0x32,0x00,0x1f,0x90,0x37,0x4b,
0x83,0x79,0x90,0x3e,0x4b,0x87,0x5d,0x80,0x3e,0x00,0x1f,0x90,0x43,0x4b,0x88,0x2d,
0xb0,0x40,0x00,0x83,0x3f,0x80,0x43,0x00,0x00,0x80,0x37,0x00,0x05,0x90,0x2b,0x50,
0x83,0x58,0xb0,0x40,0x7f,0x27,0x80,0x2b,0x00,0x1f,0x90,0x3e,0x4b,0x00,0x90,0x32,
0x4b,0x83,0x5d,0x80,0x3e,0x00,0x00,0x80,0x32,0x00,0x1f,0x90,0x43,0x4c,0x00,0x90,
0x37,0x4c,0x83,0x5a,0x80,0x43,0x00,0x1f,0x90,0x45,0x4b,0x83,0x5f,0x80,0x45,0x00,
0x1f,0x90,0x47,0x4e,0x83,0x5f,0x80,0x47,0x00,0x1f,0x90,0x48,0x4b,0x83,0x5a,0x80,
0x48,0x00,0x1e,0x80,0x37,0x00,0x01,0x90,0x47,0x4c,0x00,0x90,0x37,0x4c,0x82,0x21,
0xb0,0x40,0x00,0x81,0x39,0x80,0x47,0x00,0x00,0x80,0x37,0x00,0x1f,0x90,0x45,0x4b,
0x00,0x90,0x32,0x4b,0x83,0x5c,0x80,0x45,0x00,0x00,0x80,0x32,0x00,0x23,0x90,0x43,
0x50,0x00,0x90,0x29,0x50,0x82,0x7e,0xb0,0x40,0x7f,0x81,0x01,0x80,0x29,0x00,0x1f,
0x90,0x30,0x4b,0x83,0x5d,0x80,0x30,0x00,0x1e,0x80,0x43,0x00,0x01,0x90,0x3e,0x4c,
0x00,0x90,0x35,0x4b,0x87,0x76,0x80,0x3e,0x00,0x01,0x90,0x3c,0x4e,0x87,0x76,0x80,
0x3c,0x00,0x01,0x90,0x43,0x4c,0x84,0x12,0xb0,0x40,0x00,0x83,0x61,0x80,0x43,0x00,
0x00,0x80,0x35,0x00,0x05,0x90,0x3e,0x50,0x00,0x90,0x27,0x4f,0x82,0x40,0xb0,0x40,
0x7f,0x81,0x3f,0x80,0x27,0x00,0x1f,0x90,0x2e,0x4b,0x83,0x5d,0x80,0x2e,0x00,0x1f,
0x90,0x33,0x4c,0x83,0x78,0x80,0x3e,0x00,0x01,0x90,0x37,0x3f,0x87,0x7b,0x80,0x37,
0x00,0x01,0x90,0x37,0x4b,0x83,0x78,0x80,0x33,0x00,0x01,0x90,0x33,0x4c,0x83,0x29,
0xb0,0x40,0x00,0x4f,0x80,0x37,0x00,0x01,0x90,0x37,0x4b,0x83,0x5c,0x80,0x37,0x00,
0x1e,0x80,0x33,0x00,0x05,0x90,0x29,0x50,0x83,0x5d,0xb0,0x40,0x7f,0x22,0x80,0x29,
0x00,0x1f,0x90,0x30,0x4b,0x87,0x74,0x80,0x30,0x00,0x01,0x90,0x3c,0x3f,0x00,0x90,
0x35,0x4b,0x87,0x7b,0x80,0x3c,0x00,0x00,0x80,0x35,0x00,0x01,0x90,0x3c,0x4b,0x00,
0x90,0x30,0x4b,0x87,0x5b,0xb0,0x40,0x00,0x16,0x80,0x3c,0x00,0x01,0x90,0x3c,0x4b,
0x83,0x5c,0x80,0x3c,0x00,0x1e,0x80,0x30,0x00,0x05,0x90,0x3b,0x50,0x00,0x90,0x2b,
0x50,0x81,0x7e,0xb0,0x40,0x7f,0x82,0x01,0x80,0x3b,0x00,0x00,0x80,0x2b,0x00,0x1f,
0x90,0x3e,0x4b,0x00,0x90,0x32,0x4b,0x83,0x5d,0x80,0x3e,0x00,0x1f,0x90,0x43,0x4c,
0x83,0x78,0x80,0x32,0x00,0x01,0x90,0x37,0x4b,0x87,0x7b,0x80,0x43,0x00,0x00,0x80,
0x37,0x00,0x01,0x90,0x39,0x4b,0x00,0x90,0x32,0x4b,0x87,0x71,0x80,0x39,0x00,0x01,
0x90,0x3b,0x4b,0x4c,0xb0,0x40,0x00,0x83,0x10,0x80,0x3b,0x00,0x1e,0x80,0x32,0x00,
0x05,0x90,0x2b,0x50,0x83,0x31,0xb0,0x40,0x7f,0x4e,0x80,0x2b,0x00,0x1f,0x90,0x32,
0x4b,0x83,0x5d,0x80,0x32,0x00,0x1f,0x90,0x37,0x4b,0x83,0x79,0x90,0x3b,0x4b,0x91,
0x1a,0xb0,0x40,0x00,0x82,0x4e,0x80,0x3b,0x00,0x00,0x80,0x37,0x00,0x05,0x90,0x30,
0x50,0x82,0x2c,0xb0,0x40,0x7f,0x81,0x53,0x80,0x30,0x00,0x1f,0x90,0x37,0x4b,0x83,
0x5d,0x80,0x37,0x00,0x1f,0x90,0x3c,0x4b,0x83,0x79,0x90,0x43,0x4b,0x83,0x5f,0x80,
0x43,0x00,0x1f,0x90,0x4c,0x4e,0x83,0x5f,0x80,0x4c,0x00,0x1f,0x90,0x4a,0x4b,0x83,
0x5a,0x80,0x4a,0x00,0x1f,0x90,0x48,0x4c,0x82,0x1d,0xb0,0x40,0x00,0x81,0x3d,0x80,
0x48,0x00,0x1f,0x90,0x4c,0x4b,0x83,0x5c,0x80,0x4c,0x00,0x1e,0x80,0x3c,0x00,0x05,
0x90,0x4a,0x50,0x00,0x90,0x2f,0x50,0x81,0x54,0xb0,0x40,0x7f,0x82,0x2b,0x80,0x2f,
0x00,0x1f,0x90,0x37,0x4b,0x83,0x5d,0x80,0x37,0x00,0x1f,0x90,0x3b,0x4c,0x83,0x78,
0x80,0x4a,0x00,0x01,0x90,0x43,0x4b,0x87,0x7b,0x80,0x3b,0x00,0x01,0x90,0x37,0x4b,
0x83,0x5a,0x80,0x37,0x00,0x1f,0x90,0x3b,0x4c,0x82,0x21,0xb0,0x40,0x00,0x85,0x52,
0x80,0x43,0x00,0x00,0x80,0x3b,0x00,0x05,0x90,0x2d,0x50,0x81,0x7f,0xb0,0x40,0x7f,
0x82,0x00,0x80,0x2d,0x00,0x1f,0x90,0x34,0x4b,0x83,0x5d,0x80,0x34,0x00,0x1f,0x90,
0x39,0x4c,0x83,0x79,0x90,0x40,0x4b,0x83,0x5f,0x80,0x40,0x00,0x1f,0x90,0x4a,0x4e,
0x83,0x5f,0x80,0x4a,0x00,0x1f,0x90,0x48,0x4b,0x83,0x5a,0x80,0x48,0x00,0x1e,0x80,
0x39,0x00,0x01,0x90,0x47,0x4c,0x00,0x90,0x34,0x4c,0x82,0x76,0xb0,0x40,0x00,0x64,
0x80,0x47,0x00,0x1f,0x90,0x48,0x4b,0x83,0x5c,0x80,0x48,0x00,0x1e,0x80,0x34,0x00,
0x05,0x90,0x47,0x50,0x00,0x90,0x2b,0x50,0x82,0x38,0xb0,0x40,0x7f,0x81,0x47,0x80,
0x2b,0x00,0x1f,0x90,0x32,0x4b,0x83,0x5d,0x80,0x32,0x00,0x1f,0x90,0x37,0x4c,0x83,
0x78,0x80,0x47,0x00,0x01,0x90,0x43,0x4b,0x8b,0x74,0x80,0x37,0x00,0x01,0x90,0x32,
0x4c,0x82,0x16,0xb0,0x40,0x00,0x85,0x5d,0x80,0x43,0x00,0x00,0x80,0x32,0x00,0x05,
0x90,0x30,0x50,0x82,0x2c,0xb0,0x40,0x7f,0x81,0x53,0x80,0x30,0x00,0x1f,0x90,0x37,
0x4b,0x83,0x5d,0x80,0x37,0x00,0x1f,0x90,0x3c,0x4b,0x83,0x79,0x90,0x43,0x4b,0x83,
0x5f,0x80,0x43,0x00,0x1f,0x90,0x4c,0x4e,0x83,0x5f,0x80,0x4c,0x00,0x1f,0x90,0x4a,
0x4b,0x83,0x5a,0x80,0x4a,0x00,0x1f,0x90,0x48,0x4c,0x82,0x1d,0xb0,0x40,0x00,0x81,
0x3d,0x80,0x48,0x00,0x1f,0x90,0x4c,0x4b,0x83,0x5c,0x80,0x4c,0x00,0x1e,0x80,0x3c,
0x00,0x05,0x90,0x4a,0x50,0x00,0x90,0x2f,0x50,0x81,0x54,0xb0,0x40,0x7f,0x82,0x2b,
0x80,0x2f,0x00,0x1f,0x90,0x37,0x4b,0x83,0x5d,0x80,0x37,0x00,0x1f,0x90,0x3b,0x4c,
0x83,0x78,0x80,0x4a,0x00,0x01,0x90,0x43,0x4b,0x8b,0x74,0x80,0x3b,0x00,0x01,0x90,
0x3b,0x4c,0x82,0x21,0xb0,0x40,0x00,0x85,0x52,0x80,0x43,0x00,0x00,0x80,0x3b,0x00,
0x05,0x90,0x2e,0x50,0x82,0x1c,0xb0,0x40,0x7f,0x81,0x63,0x80,0x2e,0x00,0x1f,0x90,
0x37,0x4b,0x83,0x5d,0x80,0x37,0x00,0x1f,0x90,0x3a,0x4c,0x87,0x77,0x90,0x48,0x4e,
0x83,0x5f,0x80,0x48,0x00,0x1f,0x90,0x4a,0x4b,0x83,0x5a,0x80,0x4a,0x00,0x1e,0x80,
0x3a,0x00,0x01,0x90,0x48,0x4c,0x00,0x90,0x3a,0x4c,0x83,0x05,0xb0,0x40,0x00,0x55,
0x80,0x48,0x00,0x1f,0x90,0x47,0x4b,0x83,0x5c,0x80,0x47,0x00,0x1e,0x80,0x3a,0x00,
0x05,0x90,0x2d,0x50,0x82,0x7b,0xb0,0x40,0x7f,0x81,0x04,0x80,0x2d,0x00,0x1f,0x90,
0x39,0x4b,0x83,0x7c,0x90,0x43,0x4c,0x35,0xb0,0x40,0x00,0x87,0x41,0x80,0x43,0x00,
0x00,0x80,0x39,0x00,0x01,0x90,0x40,0x4e,0x00,0x90,0x32,0x4e,0x82,0x1f,0xb0,0x40,
0x7f,0x81,0x40,0x80,0x32,0x00,0x1f,0x90,0x39,0x4b,0x88,0x51,0xb0,0x40,0x00,0x83,
0x1b,0x80,0x40,0x00,0x00,0x80,0x39,0x00,0x05,0x90,0x2b,0x50,0x83,0x1d,0xb0,0x40,
0x7f,0x62,0x80,0x2b,0x00,0x1f,0x90,0x3e,0x4b,0x00,0x90,0x32,0x4b,0x83,0x5d,0x80,
0x3e,0x00,0x1f,0x90,0x43,0x4c,0x83,0x5a,0x80,0x43,0x00,0x1f,0x90,0x45,0x4b,0x83,
0x5f,0x80,0x45,0x00,0x1f,0x90,0x47,0x4e,0x83,0x5f,0x80,0x47,0x00,0x1f,0x90,0x48,
0x4b,0x83,0x5a,0x80,0x48,0x00,0x1e,0x80,0x32,0x00,0x01,0x90,0x47,0x4c,0x00,0x90,
0x37,0x4c,0x83,0x23,0xb0,0x40,0x00,0x37,0x80,0x47,0x00,0x00,0x80,0x37,0x00,0x1f,
0x90,0x45,0x4b,0x00,0x90,0x32,0x4b,0x83,0x5c,0x80,0x45,0x00,0x00,0x80,0x32,0x00,
0x23,0x90,0x43,0x50,0x00,0x90,0x29,0x50,0x82,0x37,0xb0,0x40,0x7f,0x81,0x48,0x80,
0x29,0x00,0x1f,0x90,0x30,0x4b,0x83,0x5d,0x80,0x30,0x00,0x1e,0x80,0x43,0x00,0x01,
0x90,0x3e,0x4c,0x00,0x90,0x35,0x4c,0x87,0x76,0x80,0x3e,0x00,0x01,0x90,0x3c,0x4e,
0x83,0x7d,0x80,0x35,0x00,0x01,0x90,0x30,0x4b,0x83,0x5a,0x80,0x30,0x00,0x1e,0x80,
0x3c,0x00,0x01,0x90,0x43,0x4c,0x00,0x90,0x35,0x4c,0x81,0x54,0xb0,0x40,0x00,0x86,
0x1f,0x80,0x43,0x00,0x00,0x80,0x35,0x00,0x05,0x90,0x3e,0x50,0x00,0x90,0x27,0x4f,
0x82,0x45,0xb0,0x40,0x7f,0x81,0x3a,0x80,0x27,0x00,0x1f,0x90,0x2e,0x4b,0x83,0x5d,
0x80,0x2e,0x00,0x1f,0x90,0x33,0x4c,0x83,0x78,0x80,0x3e,0x00,0x01,0x90,0x37,0x4b,
0x8b,0x74,0x80,0x33,0x00,0x01,0x90,0x2e,0x4c,0x83,0x78,0x80,0x37,0x00,0x01,0x90,
0x37,0x4b,0x12,0xb0,0x40,0x00,0x83,0x4a,0x80,0x37,0x00,0x1e,0x80,0x2e,0x00,0x05,
0x90,0x29,0x50,0x83,0x69,0xb0,0x40,0x7f,0x16,0x80,0x29,0x00,0x1f,0x90,0x30,0x4b,
0x83,0x5d,0x80,0x30,0x00,0x1f,0x90,0x35,0x4c,0x8f,0x6d,0x80,0x35,0x00,0x01,0x90,
0x30,0x4c,0x83,0x52,0xb0,0x40,0x00,0x27,0x90,0x3c,0x4b,0x83,0x5c,0x80,0x3c,0x00,
0x1e,0x80,0x30,0x00,0x05,0x90,0x3b,0x50,0x00,0x90,0x2b,0x50,0x82,0x5b,0xb0,0x40,
0x7f,0x81,0x24,0x80,0x3b,0x00,0x00,0x80,0x2b,0x00,0x1f,0x90,0x3e,0x4b,0x00,0x90,
0x32,0x4b,0x83,0x5d,0x80,0x3e,0x00,0x00,0x80,0x32,0x00,0x1f,0x90,0x43,0x4c,0x00,
0x90,0x37,0x4c,0x8b,0x74,0x80,0x43,0x00,0x01,0x90,0x39,0x4b,0x83,0x78,0x80,0x37,
0x00,0x01,0x90,0x37,0x4c,0x82,0x3a,0xb0,0x40,0x00,0x81,0x3e,0x80,0x39,0x00,0x01,
0x90,0x3b,0x4b,0x83,0x5c,0x80,0x3b,0x00,0x1e,0x80,0x37,0x00,0x05,0x90,0x2b,0x50,
0x82,0x4e,0xb0,0x40,0x7f,0x85,0x4b,0x80,0x2b,0x00,0x01,0x90,0x32,0x4b,0x83,0x79,
0x90,0x3e,0x4b,0x8f,0x60,0xb0,0x40,0x00,0x84,0x08,0x80,0x3e,0x00,0x00,0x80,0x32,
0x00,0x05,0x90,0x2b,0x50,0x82,0x25,0xb0,0x40,0x7f,0x81,0x5a,0x80,0x2b,0x00,0x1f,
0x90,0x3e,0x4b,0x00,0x90,0x32,0x4b,0x83,0x5d,0x80,0x3e,0x00,0x1f,0x90,0x43,0x4c,
0x83,0x5a,0x80,0x43,0x00,0x1f,0x90,0x45,0x4b,0x83,0x5f,0x80,0x45,0x00,0x1f,0x90,
0x47,0x4e,0x83,0x5f,0x80,0x47,0x00,0x1f,0x90,0x48,0x4b,0x83,0x5a,0x80,0x48,0x00,
0x1e,0x80,0x32,0x00,0x01,0x90,0x47,0x4c,0x00,0x90,0x37,0x4c,0x82,0x7e,0xb0,0x40,
0x00,0x5c,0x80,0x47,0x00,0x00,0x80,0x37,0x00,0x1f,0x90,0x45,0x4b,0x00,0x90,0x32,
0x4b,0x83,0x5c,0x80,0x45,0x00,0x00,0x80,0x32,0x00,0x23,0x90,0x43,0x50,0x00,0x90,
0x29,0x50,0x82,0x65,0xb0,0x40,0x7f,0x81,0x1a,0x80,0x29,0x00,0x1f,0x90,0x30,0x4b,
0x83,0x5d,0x80,0x30,0x00,0x1e,0x80,0x43,0x00,0x01,0x90,0x3e,0x4c,0x00,0x90,0x35,
0x4c,0x87,0x76,0x80,0x3e,0x00,0x01,0x90,0x3c,0x4e,0x83,0x7d,0x80,0x35,0x00,0x01,
0x90,0x30,0x4b,0x83,0x78,0x80,0x3c,0x00,0x01,0x90,0x43,0x4c,0x82,0x27,0xb0,0x40,
0x00,0x85,0x4c,0x80,0x43,0x00,0x00,0x80,0x30,0x00,0x05,0x90,0x3e,0x50,0x00,0x90,
0x27,0x4f,0x82,0x03,0xb0,0x40,0x7f,0x81,0x7c,0x80,0x27,0x00,0x1f,0x90,0x2e,0x4b,
0x83,0x5d,0x80,0x2e,0x00,0x1f,0x90,0x33,0x4c,0x83,0x78,0x80,0x3e,0x00,0x01,0x90,
0x37,0x3f,0x87,0x7c,0x90,0x3c,0x4b,0x1e,0x80,0x37,0x00,0x83,0x5a,0x80,0x33,0x00,
0x01,0x90,0x33,0x4c,0x83,0x78,0x80,0x3c,0x00,0x01,0x90,0x3a,0x4b,0x09,0xb0,0x40,
0x00,0x83,0x53,0x80,0x3a,0x00,0x1e,0x80,0x33,0x00,0x05,0x90,0x29,0x50,0x82,0x43,
0xb0,0x40,0x7f,0x81,0x3c,0x80,0x29,0x00,0x1f,0x90,0x30,0x4b,0x83,0x5d,0x80,0x30,
0x00,0x1f,0x90,0x35,0x4c,0x87,0x76,0x80,0x35,0x00,0x83,0x7f,0x90,0x3c,0x4b,0x83,
0x79,0x90,0x30,0x4c,0x83,0x78,0x80,0x3c,0x00,0x01,0x90,0x3c,0x4b,0x51,0xb0,0x40,
0x00,0x83,0x0b,0x80,0x3c,0x00,0x1e,0x80,0x30,0x00,0x05,0x90,0x3b,0x50,0x00,0x90,
0x2b,0x50,0x82,0x5b,0xb0,0x40,0x7f,0x81,0x24,0x80,0x3b,0x00,0x00,0x80,0x2b,0x00,
0x1f,0x90,0x3e,0x4b,0x00,0x90,0x32,0x4b,0x83,0x5d,0x80,0x3e,0x00,0x00,0x80,0x32,
0x00,0x1f,0x90,0x43,0x4c,0x00,0x90,0x37,0x4c,0x8b,0x74,0x80,0x43,0x00,0x01,0x90,
0x39,0x4b,0x83,0x78,0x80,0x37,0x00,0x01,0x90,0x37,0x4c,0x82,0x3a,0xb0,0x40,0x00,
0x81,0x3e,0x80,0x39,0x00,0x01,0x90,0x3b,0x4b,0x83,0x5c,0x80,0x3b,0x00,0x1e,0x80,
0x37,0x00,0x05,0x90,0x2b,0x50,0x83,0x16,0xb0,0x40,0x7f,0x69,0x80,0x2b,0x00,0x1f,
0x90,0x32,0x4b,0x83,0x5d,0x80,0x32,0x00,0x1f,0x90,0x37,0x4b,0x8b,0x75,0x90,0x3b,
0x43,0x00,0x90,0x43,0x4d,0x88,0x15,0xb0,0x40,0x00,0x83,0x57,0x80,0x3b,0x00,0x00,
0x80,0x43,0x00,0x00,0x80,0x37,0x00,0x05,0x90,0x29,0x43,0x82,0x7b,0xb0,0x40,0x7f,
0x81,0x04,0x80,0x29,0x00,0x1f,0x90,0x30,0x3e,0x83,0x5d,0x80,0x30,0x00,0x1f,0x90,
0x35,0x3e,0x83,0x79,0x90,0x39,0x36,0x00,0x90,0x41,0x44,0x87,0x7b,0x80,0x39,0x00,
0x00,0x80,0x41,0x00,0x01,0x90,0x39,0x2b,0x00,0x90,0x41,0x35,0x83,0x78,0x80,0x39,
0x00,0x00,0x80,0x41,0x00,0x01,0x90,0x39,0x2c,0x00,0x90,0x41,0x36,0x82,0x7b,0xb0,
0x40,0x00,0x7d,0x80,0x39,0x00,0x00,0x80,0x41,0x00,0x01,0x90,0x39,0x2c,0x00,0x90,
0x41,0x36,0x83,0x7a,0x80,0x41,0x00,0x00,0x80,0x35,0x00,0x05,0x90,0x29,0x41,0x1a,
0x80,0x39,0x00,0x83,0x20,0xb0,0x40,0x7f,0x64,0x90,0x39,0x2d,0x00,0x90,0x41,0x37,
0x83,0x7b,0x80,0x39,0x00,0x00,0x80,0x41,0x00,0x01,0x90,0x39,0x2e,0x00,0x90,0x41,
0x38,0x83,0x78,0x80,0x39,0x00,0x00,0x80,0x41,0x00,0x01,0x90,0x39,0x2f,0x00,0x90,
0x41,0x39,0x83,0x7d,0x80,0x41,0x00,0x00,0x80,0x29,0x00,0x01,0x90,0x30,0x43,0x1e,
0x80,0x39,0x00,0x83,0x60,0x90,0x39,0x30,0x00,0x90,0x41,0x3a,0x83,0x78,0x80,0x39,
0x00,0x00,0x80,0x41,0x00,0x00,0x80,0x30,0x00,0x01,0x90,0x39,0x30,0x00,0x90,0x41,
0x3a,0x00,0x90,0x35,0x44,0x83,0x37,0xb0,0x40,0x00,0x41,0x80,0x39,0x00,0x00,0x80,
0x41,0x00,0x01,0x90,0x39,0x31,0x00,0x90,0x41,0x3f,0x83,0x7a,0x80,0x35,0x00,0x05,
0x90,0x27,0x44,0x1a,0x80,0x39,0x00,0x00,0x80,0x41,0x00,0x82,0x10,0xb0,0x40,0x7f,
0x81,0x55,0x80,0x27,0x00,0x1f,0x90,0x2e,0x45,0x83,0x5d,0x80,0x2e,0x00,0x1f,0x90,
0x33,0x46,0x83,0x79,0x90,0x3a,0x33,0x00,0x90,0x43,0x41,0x83,0x7d,0x80,0x43,0x00,
0x1f,0x80,0x3a,0x00,0x83,0x60,0x90,0x3a,0x34,0x00,0x90,0x43,0x3e,0x83,0x78,0x80,
0x43,0x00,0x00,0x80,0x33,0x00,0x01,0x90,0x33,0x48,0x1e,0x80,0x3a,0x00,0x82,0x68,
0xb0,0x40,0x00,0x73,0x90,0x3a,0x35,0x00,0x90,0x43,0x3f,0x83,0x7a,0x80,0x43,0x00,
0x00,0x80,0x33,0x00,0x05,0x90,0x27,0x48,0x1a,0x80,0x3a,0x00,0x81,0x12,0xb0,0x40,
0x7f,0x82,0x72,0x90,0x3a,0x36,0x00,0x90,0x43,0x40,0x83,0x7b,0x80,0x3a,0x00,0x00,
0x80,0x43,0x00,0x01,0x90,0x3a,0x37,0x00,0x90,0x43,0x41,0x83,0x78,0x80,0x3a,0x00,
0x00,0x80,0x43,0x00,0x01,0x90,0x3a,0x37,0x00,0x90,0x43,0x41,0x83,0x7d,0x80,0x3a,
0x00,0x00,0x80,0x43,0x00,0x01,0x90,0x3a,0x38,0x00,0x90,0x43,0x42,0x83,0x7d,0x80,
0x3a,0x00,0x00,0x80,0x43,0x00,0x01,0x90,0x3a,0x38,0x00,0x90,0x43,0x42,0x83,0x78,
0x80,0x3a,0x00,0x00,0x80,0x43,0x00,0x01,0x90,0x3a,0x39,0x00,0x90,0x43,0x43,0x83,
0x2a,0xb0,0x40,0x00,0x4e,0x80,0x3a,0x00,0x00,0x80,0x43,0x00,0x01,0x90,0x3a,0x44,
0x00,0x90,0x43,0x3f,0x83,0x7a,0x80,0x27,0x00,0x05,0x90,0x26,0x4c,0x1a,0x80,0x3a,
0x00,0x00,0x80,0x43,0x00,0x82,0x69,0xb0,0x40,0x7f,0x7c,0x80,0x26,0x00,0x1f,0x90,
0x2d,0x4e,0x83,0x5d,0x80,0x2d,0x00,0x1f,0x90,0x32,0x4e,0x83,0x79,0x90,0x3c,0x53,
0x00,0x90,0x43,0x4e,0x87,0x7b,0x80,0x3c,0x00,0x00,0x80,0x43,0x00,0x01,0x90,0x3c,
0x49,0x00,0x90,0x43,0x53,0x83,0x78,0x80,0x32,0x00,0x01,0x90,0x32,0x50,0x83,0x2c,
0xb0,0x40,0x00,0x4c,0x80,0x3c,0x00,0x00,0x80,0x43,0x00,0x01,0x90,0x3c,0x4a,0x00,
0x90,0x43,0x58,0x83,0x5c,0x80,0x3c,0x00,0x1e,0x80,0x43,0x00,0x00,0x80,0x32,0x00,
0x05,0x90,0x26,0x51,0x82,0x5a,0xb0,0x40,0x7f,0x81,0x25,0x80,0x26,0x00,0x1f,0x90,
0x3c,0x4b,0x00,0x90,0x45,0x59,0x00,0x90,0x2d,0x52,0x83,0x5d,0x80,0x2d,0x00,0x1f,
0x90,0x32,0x53,0x83,0x78,0x80,0x3c,0x00,0x00,0x80,0x45,0x00,0x01,0x90,0x3c,0x4c,
0x00,0x90,0x45,0x56,0x87,0x7b,0x80,0x3c,0x00,0x00,0x80,0x45,0x00,0x01,0x90,0x3c,
0x4d,0x00,0x90,0x45,0x57,0x83,0x78,0x80,0x32,0x00,0x01,0x90,0x32,0x55,0x83,0x34,
0xb0,0x40,0x00,0x83,0x5f,0x80,0x3c,0x00,0x00,0x80,0x45,0x00,0x00,0x80,0x32,0x00,
0x01,0xff,0x2f,0x00,
};
