#include <stdint.h>
const uint8_t midifile2[] = {
0x4d,0x54,0x68,0x64,0x00,0x00,0x00,0x06,0x00,0x00,0x00,0x01,0x00,0x2b,0x4d,0x54,
0x72,0x6b,0x00,0x00,0x02,0xce,0x00,0xff,0x51,0x03,0x07,0xa1,0x20,0x00,0xc0,0x00,
0x00,0x90,0x4a,0x14,0x00,0x90,0x56,0x1d,0x05,0x80,0x4a,0x40,0x01,0x80,0x56,0x40,
0x33,0x90,0x57,0x17,0x04,0x90,0x30,0x15,0x01,0x80,0x57,0x40,0x05,0x90,0x58,0x19,
0x01,0x80,0x30,0x40,0x01,0x90,0x30,0x16,0x03,0x80,0x58,0x40,0x03,0x80,0x30,0x40,
0x02,0x90,0x57,0x18,0x01,0x90,0x48,0x10,0x00,0x90,0x4c,0x12,0x01,0x90,0x3c,0x16,
0x01,0x90,0x40,0x16,0x02,0x80,0x57,0x40,0x02,0x80,0x4c,0x40,0x02,0x80,0x48,0x40,
0x01,0x90,0x58,0x1a,0x04,0x80,0x3c,0x40,0x00,0x80,0x40,0x40,0x01,0x80,0x58,0x40,
0x05,0x90,0x54,0x16,0x05,0x90,0x2e,0x13,0x01,0x80,0x54,0x40,0x05,0x90,0x4f,0x17,
0x01,0x80,0x2e,0x40,0x01,0x90,0x2e,0x12,0x04,0x80,0x2e,0x40,0x00,0x80,0x4f,0x40,
0x04,0x90,0x3e,0x14,0x00,0x90,0x50,0x16,0x01,0x90,0x3a,0x17,0x05,0x80,0x50,0x40,
0x02,0x90,0x51,0x17,0x05,0x80,0x3a,0x40,0x00,0x80,0x3e,0x40,0x01,0x80,0x51,0x40,
0x04,0x90,0x4b,0x16,0x04,0x90,0x2d,0x15,0x04,0x80,0x4b,0x40,0x02,0x90,0x4c,0x17,
0x02,0x80,0x2d,0x40,0x02,0x90,0x2d,0x14,0x04,0x80,0x4c,0x40,0x01,0x80,0x2d,0x40,
0x01,0x90,0x48,0x21,0x01,0x90,0x3c,0x19,0x01,0x90,0x45,0x10,0x02,0x80,0x3c,0x40,
0x01,0x90,0x3c,0x15,0x03,0x80,0x3c,0x40,0x01,0x90,0x39,0x17,0x02,0x90,0x3c,0x14,
0x00,0x90,0x43,0x16,0x00,0x80,0x45,0x40,0x00,0x80,0x48,0x40,0x01,0x80,0x39,0x40,
0x03,0x80,0x3c,0x40,0x04,0x80,0x43,0x40,0x02,0x90,0x44,0x16,0x03,0x90,0x2b,0x13,
0x05,0x80,0x44,0x40,0x02,0x90,0x45,0x15,0x03,0x80,0x2b,0x40,0x05,0x80,0x45,0x40,
0x02,0x90,0x47,0x0f,0x00,0x90,0x4b,0x12,0x01,0x90,0x37,0x15,0x00,0x90,0x3f,0x16,
0x04,0x90,0x3b,0x16,0x02,0x80,0x4b,0x40,0x01,0x80,0x3f,0x40,0x00,0x80,0x47,0x40,
0x02,0x90,0x4c,0x11,0x01,0x80,0x3b,0x40,0x00,0x90,0x40,0x16,0x01,0x80,0x37,0x40,
0x04,0x80,0x4c,0x40,0x02,0x80,0x40,0x40,0x02,0x90,0x48,0x11,0x01,0x90,0x37,0x19,
0x00,0x90,0x3c,0x18,0x06,0x90,0x2f,0x12,0x00,0x80,0x48,0x40,0x03,0x90,0x24,0x16,
0x02,0x80,0x37,0x40,0x01,0x80,0x2f,0x40,0x04,0x80,0x24,0x40,0x04,0x80,0x3c,0x40,
0x16,0x90,0x30,0x21,0x00,0x90,0x36,0x0f,0x03,0x80,0x36,0x40,0x01,0x80,0x30,0x40,
0x01,0x90,0x37,0x0b,0x02,0x90,0x2f,0x1f,0x02,0x80,0x2f,0x40,0x00,0x90,0x30,0x1b,
0x00,0x80,0x37,0x40,0x02,0x90,0x24,0x14,0x05,0x90,0x23,0x0c,0x00,0x80,0x24,0x40,
0x04,0x80,0x23,0x40,0x00,0x90,0x24,0x10,0x02,0x80,0x30,0x40,0x02,0x80,0x24,0x40,
0x01,0x90,0x37,0x19,0x05,0x90,0x3e,0x14,0x02,0x90,0x41,0x15,0x03,0x90,0x46,0x15,
0x07,0x90,0x51,0x18,0x2a,0x90,0x4d,0x1c,0x16,0x80,0x51,0x40,0x02,0x90,0x48,0x19,
0x0e,0x80,0x3e,0x40,0x05,0x80,0x46,0x40,0x00,0x80,0x48,0x40,0x02,0x90,0x46,0x14,
0x01,0x90,0x30,0x19,0x00,0x80,0x37,0x40,0x00,0x80,0x41,0x40,0x03,0x90,0x37,0x14,
0x00,0x90,0x49,0x11,0x01,0x80,0x30,0x40,0x00,0x90,0x4c,0x14,0x00,0x80,0x4d,0x40,
0x01,0x90,0x30,0x17,0x02,0x80,0x37,0x40,0x00,0x90,0x51,0x18,0x07,0x90,0x3a,0x15,
0x02,0x90,0x37,0x11,0x01,0x80,0x3a,0x40,0x02,0x80,0x37,0x40,0x06,0x90,0x39,0x13,
0x03,0x80,0x39,0x40,0x00,0x90,0x3a,0x12,0x04,0x80,0x3a,0x40,0x03,0x90,0x3a,0x10,
0x04,0x80,0x3a,0x40,0x00,0x80,0x46,0x40,0x01,0x80,0x49,0x40,0x03,0x90,0x43,0x15,
0x00,0x80,0x4c,0x40,0x03,0x80,0x51,0x40,0x01,0x90,0x3a,0x10,0x00,0x90,0x46,0x14,
0x02,0x90,0x49,0x10,0x01,0x80,0x3a,0x40,0x00,0x90,0x4c,0x19,0x0b,0x90,0x3a,0x0d,
0x03,0x80,0x3a,0x40,0x19,0x80,0x4c,0x40,0x05,0x80,0x30,0x40,0x01,0x80,0x43,0x40,
0x00,0x80,0x46,0x40,0x01,0x90,0x35,0x17,0x00,0x90,0x45,0x13,0x00,0x90,0x48,0x13,
0x00,0x80,0x49,0x40,0x02,0x90,0x3c,0x14,0x01,0x90,0x4c,0x14,0x01,0x90,0x4f,0x19,
0x02,0x90,0x40,0x17,0x32,0x80,0x45,0x40,0x07,0x90,0x51,0x14,0x15,0x80,0x48,0x40,
0x01,0x80,0x4c,0x40,0x02,0x90,0x56,0x15,0x15,0x80,0x3c,0x40,0x00,0x80,0x40,0x40,
0x26,0x80,0x35,0x40,0x06,0x80,0x4f,0x40,0x1a,0x80,0x51,0x40,0x1e,0x80,0x56,0x40,
0x00,0xff,0x2f,0x00,
};
