#include <stdint.h>
const uint8_t midifile1[] = {
0x4d,0x54,0x68,0x64,0x00,0x00,0x00,0x06,0x00,0x01,0x00,0x0e,0x00,0xf0,0x4d,0x54,
0x72,0x6b,0x00,0x00,0x00,0x13,0x00,0xff,0x58,0x04,0x04,0x02,0x18,0x08,0x00,0xff,
0x51,0x03,0x08,0x52,0xaf,0x00,0xff,0x2f,0x00,0x4d,0x54,0x72,0x6b,0x00,0x00,0x03,
0xb1,0x00,0xff,0x03,0x04,0x62,0x61,0x73,0x73,0x00,0xc0,0x25,0x00,0xb0,0x07,0x6e,
0x00,0xb0,0x5b,0x28,0x00,0xb0,0x0a,0x40,0x00,0xe0,0x00,0x40,0x8b,0x20,0x90,0x37,
0x69,0x30,0x80,0x37,0x40,0x48,0x90,0x35,0x69,0x28,0x80,0x35,0x40,0x50,0x90,0x32,
0x69,0x40,0x80,0x32,0x40,0x10,0x90,0x30,0x69,0x14,0x80,0x30,0x40,0x14,0x90,0x2e,
0x69,0x68,0x80,0x2e,0x40,0x10,0x90,0x2b,0x69,0x34,0x80,0x2b,0x40,0x44,0x90,0x29,
0x69,0x28,0x80,0x29,0x40,0x50,0x90,0x26,0x69,0x48,0x80,0x26,0x40,0x08,0x90,0x24,
0x69,0x20,0x80,0x24,0x40,0x08,0x90,0x22,0x69,0x64,0x80,0x22,0x40,0x14,0x90,0x1f,
0x69,0x5c,0x80,0x1f,0x40,0x58,0x90,0x1f,0x69,0x28,0x80,0x1f,0x40,0x14,0x90,0x23,
0x69,0x36,0x80,0x23,0x40,0x42,0x90,0x26,0x69,0x24,0x80,0x26,0x40,0x54,0x90,0x29,
0x69,0x60,0x80,0x29,0x40,0x81,0x10,0x90,0x23,0x69,0x81,0x1e,0x80,0x23,0x40,0x16,
0x90,0x24,0x69,0x36,0x80,0x24,0x40,0x7e,0x90,0x24,0x69,0x36,0x80,0x24,0x40,0x81,
0x3a,0x90,0x22,0x69,0x28,0x80,0x22,0x40,0x50,0x90,0x21,0x69,0x81,0x08,0x80,0x21,
0x40,0x68,0x90,0x20,0x69,0x81,0x08,0x80,0x20,0x40,0x2c,0x90,0x1f,0x69,0x3c,0x80,
0x1f,0x40,0x3c,0x90,0x1f,0x69,0x16,0x80,0x1f,0x40,0x26,0x90,0x1f,0x69,0x5a,0x80,
0x1f,0x40,0x1e,0x90,0x21,0x69,0x30,0x80,0x21,0x40,0x48,0x90,0x21,0x69,0x2c,0x80,
0x21,0x40,0x4c,0x90,0x22,0x69,0x40,0x80,0x22,0x40,0x81,0x30,0x90,0x23,0x69,0x81,
0x12,0x80,0x23,0x40,0x22,0x90,0x24,0x69,0x34,0x80,0x24,0x40,0x62,0x90,0x30,0x69,
0x2e,0x80,0x30,0x40,0x86,0x38,0x90,0x1f,0x69,0x5c,0x80,0x1f,0x40,0x58,0x90,0x1f,
0x69,0x28,0x80,0x1f,0x40,0x14,0x90,0x23,0x69,0x36,0x80,0x23,0x40,0x42,0x90,0x26,
0x69,0x24,0x80,0x26,0x40,0x54,0x90,0x29,0x69,0x60,0x80,0x29,0x40,0x81,0x10,0x90,
0x23,0x69,0x81,0x1e,0x80,0x23,0x40,0x16,0x90,0x24,0x69,0x36,0x80,0x24,0x40,0x7e,
0x90,0x24,0x69,0x36,0x80,0x24,0x40,0x81,0x3a,0x90,0x22,0x69,0x28,0x80,0x22,0x40,
0x50,0x90,0x21,0x69,0x81,0x08,0x80,0x21,0x40,0x68,0x90,0x20,0x69,0x81,0x08,0x80,
0x20,0x40,0x2c,0x90,0x1f,0x69,0x3c,0x80,0x1f,0x40,0x3c,0x90,0x1f,0x69,0x16,0x80,
0x1f,0x40,0x26,0x90,0x1f,0x69,0x5a,0x80,0x1f,0x40,0x1e,0x90,0x21,0x69,0x30,0x80,
0x21,0x40,0x48,0x90,0x21,0x69,0x2c,0x80,0x21,0x40,0x4c,0x90,0x22,0x69,0x40,0x80,
0x22,0x40,0x81,0x30,0x90,0x23,0x69,0x81,0x12,0x80,0x23,0x40,0x22,0x90,0x24,0x69,
0x34,0x80,0x24,0x40,0x62,0x90,0x30,0x69,0x2e,0x80,0x30,0x40,0x86,0x38,0x90,0x1f,
0x69,0x5c,0x80,0x1f,0x40,0x58,0x90,0x1f,0x69,0x28,0x80,0x1f,0x40,0x14,0x90,0x23,
0x69,0x36,0x80,0x23,0x40,0x42,0x90,0x26,0x69,0x24,0x80,0x26,0x40,0x54,0x90,0x29,
0x69,0x60,0x80,0x29,0x40,0x81,0x10,0x90,0x23,0x69,0x81,0x1e,0x80,0x23,0x40,0x16,
0x90,0x24,0x69,0x36,0x80,0x24,0x40,0x7e,0x90,0x24,0x69,0x36,0x80,0x24,0x40,0x81,
0x3a,0x90,0x22,0x69,0x28,0x80,0x22,0x40,0x50,0x90,0x21,0x69,0x81,0x08,0x80,0x21,
0x40,0x68,0x90,0x20,0x69,0x81,0x08,0x80,0x20,0x40,0x2c,0x90,0x1f,0x69,0x3c,0x80,
0x1f,0x40,0x3c,0x90,0x1f,0x69,0x16,0x80,0x1f,0x40,0x26,0x90,0x1f,0x69,0x5a,0x80,
0x1f,0x40,0x1e,0x90,0x21,0x69,0x30,0x80,0x21,0x40,0x48,0x90,0x21,0x69,0x2c,0x80,
0x21,0x40,0x4c,0x90,0x22,0x69,0x40,0x80,0x22,0x40,0x81,0x30,0x90,0x23,0x69,0x81,
0x12,0x80,0x23,0x40,0x22,0x90,0x24,0x69,0x34,0x80,0x24,0x40,0x62,0x90,0x3a,0x69,
0x81,0x16,0xe0,0x40,0x40,0x0c,0xe0,0x00,0x41,0x18,0xe0,0x00,0x43,0x22,0xe0,0x00,
0x46,0x2a,0xe0,0x00,0x4a,0x2c,0xe0,0x38,0x50,0x24,0xe0,0x32,0x59,0x12,0x80,0x3a,
0x40,0x10,0xe0,0x40,0x63,0x0a,0xe0,0x00,0x40,0x04,0x90,0x37,0x69,0x28,0x80,0x37,
0x40,0x50,0x90,0x35,0x69,0x30,0x80,0x35,0x40,0x48,0x90,0x33,0x69,0x34,0x80,0x33,
0x40,0x1c,0x90,0x30,0x69,0x14,0x80,0x30,0x40,0x14,0x90,0x2e,0x69,0x58,0x80,0x2e,
0x40,0x20,0x90,0x1f,0x69,0x5c,0x80,0x1f,0x40,0x58,0x90,0x1f,0x69,0x28,0x80,0x1f,
0x40,0x14,0x90,0x23,0x69,0x36,0x80,0x23,0x40,0x42,0x90,0x26,0x69,0x24,0x80,0x26,
0x40,0x54,0x90,0x29,0x69,0x60,0x80,0x29,0x40,0x81,0x10,0x90,0x23,0x69,0x81,0x1e,
0x80,0x23,0x40,0x16,0x90,0x24,0x69,0x36,0x80,0x24,0x40,0x7e,0x90,0x24,0x69,0x36,
0x80,0x24,0x40,0x81,0x3a,0x90,0x22,0x69,0x28,0x80,0x22,0x40,0x50,0x90,0x21,0x69,
0x81,0x08,0x80,0x21,0x40,0x68,0x90,0x20,0x69,0x81,0x08,0x80,0x20,0x40,0x2c,0x90,
0x1f,0x69,0x3c,0x80,0x1f,0x40,0x3c,0x90,0x1f,0x69,0x16,0x80,0x1f,0x40,0x26,0x90,
0x1f,0x69,0x5a,0x80,0x1f,0x40,0x1e,0x90,0x21,0x69,0x30,0x80,0x21,0x40,0x48,0x90,
0x21,0x69,0x2c,0x80,0x21,0x40,0x4c,0x90,0x22,0x69,0x40,0x80,0x22,0x40,0x81,0x30,
0x90,0x23,0x69,0x81,0x12,0x80,0x23,0x40,0x22,0x90,0x24,0x69,0x34,0x80,0x24,0x40,
0x81,0x00,0x90,0x2e,0x73,0x82,0x0e,0xe0,0x40,0x40,0x0c,0xe0,0x00,0x41,0x18,0xe0,
0x00,0x43,0x22,0xe0,0x00,0x46,0x2a,0xe0,0x00,0x4a,0x2c,0xe0,0x00,0x4e,0x24,0xe0,
0x40,0x51,0x22,0xe0,0x40,0x55,0x22,0xe0,0x40,0x59,0x2c,0xe0,0x00,0x5d,0x2e,0xe0,
0x00,0x61,0x14,0x80,0x2e,0x40,0x08,0xe0,0x40,0x63,0x08,0xe0,0x00,0x40,0x04,0x90,
0x29,0x69,0x24,0x80,0x29,0x40,0x18,0x90,0x29,0x69,0x24,0x80,0x29,0x40,0x18,0x90,
0x2a,0x69,0x24,0x80,0x2a,0x40,0x18,0x90,0x2b,0x69,0x2e,0x80,0x2b,0x40,0x00,0xff,
0x2f,0x00,0x4d,0x54,0x72,0x6b,0x00,0x00,0x01,0x47,0x00,0xff,0x03,0x08,0x62,0x61,
0x72,0x69,0x20,0x73,0x61,0x78,0x00,0xc1,0x43,0x00,0xb1,0x07,0x5a,0x08,0xb1,0x5b,
0x3c,0x00,0xb1,0x5d,0x0a,0x00,0xb1,0x0a,0x40,0xab,0x08,0x91,0x3c,0x64,0x00,0x91,
0x37,0x64,0x1e,0x81,0x3c,0x40,0x06,0x81,0x37,0x40,0x18,0x91,0x3c,0x64,0x00,0x91,
0x37,0x64,0x28,0x81,0x3c,0x40,0x0a,0x81,0x37,0x40,0x0a,0x91,0x3a,0x64,0x00,0x91,
0x35,0x64,0x26,0x81,0x35,0x40,0x0a,0x81,0x3a,0x40,0x0c,0x91,0x3c,0x64,0x00,0x91,
0x37,0x64,0x50,0x81,0x3c,0x40,0x04,0x81,0x37,0x40,0x9b,0x78,0x91,0x37,0x64,0x00,
0x91,0x3c,0x64,0x1c,0x81,0x3c,0x40,0x08,0x81,0x37,0x40,0x18,0x91,0x3c,0x64,0x00,
0x91,0x37,0x64,0x2a,0x81,0x3c,0x40,0x06,0x81,0x37,0x40,0x0c,0x91,0x35,0x64,0x00,
0x91,0x3a,0x64,0x28,0x81,0x3a,0x40,0x0a,0x81,0x35,0x40,0x0a,0x91,0x34,0x64,0x00,
0x91,0x39,0x64,0x44,0x81,0x34,0x40,0x0c,0x81,0x39,0x40,0xb4,0x2c,0x91,0x3c,0x50,
0x00,0x91,0x37,0x50,0x1e,0x81,0x3c,0x40,0x06,0x81,0x37,0x40,0x18,0x91,0x3c,0x50,
0x00,0x91,0x37,0x50,0x3a,0x81,0x37,0x40,0x02,0x81,0x3c,0x40,0x00,0x91,0x3a,0x50,
0x00,0x91,0x35,0x50,0x2c,0x81,0x3a,0x40,0x06,0x81,0x35,0x40,0x0a,0x91,0x37,0x50,
0x00,0x91,0x3c,0x50,0x50,0x81,0x3c,0x40,0x06,0x81,0x37,0x40,0x5e,0x91,0x3a,0x50,
0x00,0x91,0x3f,0x50,0x3c,0x91,0x3c,0x50,0x00,0x91,0x37,0x50,0x14,0x81,0x3f,0x40,
0x00,0x81,0x3a,0x40,0x3c,0x81,0x37,0x40,0x00,0x81,0x3c,0x40,0x85,0x78,0x91,0x3a,
0x50,0x00,0x91,0x35,0x50,0x28,0x81,0x35,0x40,0x00,0x81,0x3a,0x40,0x14,0x91,0x3a,
0x50,0x00,0x91,0x35,0x50,0x28,0x81,0x35,0x40,0x00,0x81,0x3a,0x40,0x14,0x91,0x3b,
0x50,0x00,0x91,0x36,0x50,0x28,0x81,0x36,0x40,0x00,0x81,0x3b,0x40,0x14,0x91,0x3c,
0x50,0x00,0x91,0x37,0x50,0x3c,0x81,0x37,0x40,0x00,0x81,0x3c,0x40,0x00,0xff,0x2f,
0x00,0x4d,0x54,0x72,0x6b,0x00,0x00,0x00,0xeb,0x00,0xff,0x03,0x08,0x66,0x63,0x68,
0x20,0x68,0x6f,0x72,0x6e,0x00,0xc2,0x3c,0x00,0xb2,0x07,0x4b,0x0a,0xb2,0x5b,0x3c,
0x00,0xb2,0x0a,0x54,0xb0,0x56,0x92,0x3b,0x5a,0x00,0x92,0x43,0x5a,0x86,0x70,0x82,
0x43,0x40,0x00,0x82,0x3b,0x40,0x14,0x92,0x3a,0x5a,0x00,0x92,0x40,0x5a,0x87,0x2c,
0x82,0x40,0x40,0x00,0x82,0x3a,0x40,0x14,0x92,0x3b,0x5a,0x00,0x92,0x43,0x5a,0x87,
0x34,0x82,0x43,0x40,0x00,0x82,0x3b,0x40,0x0c,0x92,0x40,0x5a,0x00,0x92,0x3a,0x5a,
0x78,0x82,0x3a,0x40,0x00,0x82,0x40,0x40,0x87,0x04,0x92,0x3b,0x5a,0x00,0x92,0x43,
0x5a,0x86,0x70,0x82,0x43,0x40,0x00,0x82,0x3b,0x40,0x14,0x92,0x3a,0x5a,0x00,0x92,
0x40,0x5a,0x87,0x2c,0x82,0x40,0x40,0x00,0x82,0x3a,0x40,0x14,0x92,0x3b,0x5a,0x00,
0x92,0x43,0x5a,0x87,0x34,0x82,0x43,0x40,0x00,0x82,0x3b,0x40,0x0c,0x92,0x40,0x5a,
0x00,0x92,0x3a,0x5a,0x87,0x40,0x82,0x3a,0x40,0x00,0x82,0x40,0x40,0x3c,0x92,0x43,
0x5a,0x00,0x92,0x3b,0x5a,0x86,0x70,0x82,0x3b,0x40,0x00,0x82,0x43,0x40,0x14,0x92,
0x40,0x5a,0x00,0x92,0x3a,0x5a,0x87,0x2c,0x82,0x3a,0x40,0x00,0x82,0x40,0x40,0x14,
0x92,0x43,0x5a,0x00,0x92,0x3b,0x5a,0x87,0x34,0x82,0x3b,0x40,0x00,0x82,0x43,0x40,
0x0c,0x92,0x40,0x5a,0x00,0x92,0x3a,0x5a,0x78,0x82,0x3a,0x40,0x00,0x82,0x40,0x40,
0x00,0xff,0x2f,0x00,0x4d,0x54,0x72,0x6b,0x00,0x00,0x02,0x10,0x00,0xff,0x03,0x0a,
0x65,0x6c,0x65,0x63,0x20,0x70,0x69,0x61,0x6e,0x6f,0x00,0xc3,0x04,0x00,0xb3,0x07,
0x4b,0x10,0xb3,0x5b,0x3c,0x00,0xb3,0x0a,0x2c,0xb0,0x50,0x93,0x4f,0x5a,0x00,0x93,
0x47,0x5a,0x00,0x93,0x4d,0x5a,0x00,0x93,0x4a,0x5a,0x86,0x20,0x83,0x4a,0x40,0x00,
0x83,0x4d,0x40,0x00,0x83,0x47,0x40,0x00,0x83,0x4f,0x40,0x64,0x93,0x4c,0x5a,0x00,
0x93,0x46,0x5a,0x00,0x93,0x48,0x5a,0x00,0x93,0x43,0x5a,0x86,0x70,0x83,0x43,0x40,
0x00,0x83,0x48,0x40,0x00,0x83,0x46,0x40,0x00,0x83,0x4c,0x40,0x50,0x93,0x4d,0x5a,
0x00,0x93,0x47,0x5a,0x00,0x93,0x4f,0x5a,0x00,0x93,0x4a,0x5a,0x85,0x50,0x83,0x4a,
0x40,0x00,0x83,0x4f,0x40,0x00,0x83,0x47,0x40,0x00,0x83,0x4d,0x40,0x3c,0x93,0x4a,
0x5a,0x00,0x93,0x47,0x5a,0x00,0x93,0x4f,0x5a,0x00,0x93,0x4d,0x5a,0x81,0x32,0x83,
0x4d,0x40,0x00,0x83,0x4f,0x40,0x00,0x83,0x47,0x40,0x00,0x83,0x4a,0x40,0x02,0x93,
0x43,0x5a,0x00,0x93,0x46,0x5a,0x00,0x93,0x48,0x5a,0x00,0x93,0x4c,0x5a,0x3c,0x83,
0x4c,0x40,0x00,0x83,0x48,0x40,0x00,0x83,0x46,0x40,0x00,0x83,0x43,0x40,0x87,0x40,
0x93,0x4f,0x5a,0x00,0x93,0x47,0x5a,0x00,0x93,0x4d,0x5a,0x00,0x93,0x4a,0x5a,0x86,
0x20,0x83,0x4a,0x40,0x00,0x83,0x4d,0x40,0x00,0x83,0x47,0x40,0x00,0x83,0x4f,0x40,
0x64,0x93,0x4c,0x5a,0x00,0x93,0x46,0x5a,0x00,0x93,0x48,0x5a,0x00,0x93,0x43,0x5a,
0x86,0x70,0x83,0x43,0x40,0x00,0x83,0x48,0x40,0x00,0x83,0x46,0x40,0x00,0x83,0x4c,
0x40,0x50,0x93,0x4d,0x5a,0x00,0x93,0x47,0x5a,0x00,0x93,0x4f,0x5a,0x00,0x93,0x4a,
0x5a,0x85,0x50,0x83,0x4a,0x40,0x00,0x83,0x4f,0x40,0x00,0x83,0x47,0x40,0x00,0x83,
0x4d,0x40,0x3c,0x93,0x4a,0x5a,0x00,0x93,0x47,0x5a,0x00,0x93,0x4f,0x5a,0x00,0x93,
0x4d,0x5a,0x81,0x32,0x83,0x4d,0x40,0x00,0x83,0x4f,0x40,0x00,0x83,0x47,0x40,0x00,
0x83,0x4a,0x40,0x02,0x93,0x43,0x5a,0x00,0x93,0x46,0x5a,0x00,0x93,0x48,0x5a,0x00,
0x93,0x4c,0x5a,0x3c,0x83,0x4c,0x40,0x00,0x83,0x48,0x40,0x00,0x83,0x46,0x40,0x00,
0x83,0x43,0x40,0x87,0x40,0x93,0x4f,0x5a,0x00,0x93,0x47,0x5a,0x00,0x93,0x4d,0x5a,
0x00,0x93,0x4a,0x5a,0x86,0x20,0x83,0x4a,0x40,0x00,0x83,0x4d,0x40,0x00,0x83,0x47,
0x40,0x00,0x83,0x4f,0x40,0x64,0x93,0x4c,0x5a,0x00,0x93,0x46,0x5a,0x00,0x93,0x48,
0x5a,0x00,0x93,0x43,0x5a,0x86,0x70,0x83,0x43,0x40,0x00,0x83,0x48,0x40,0x00,0x83,
0x46,0x40,0x00,0x83,0x4c,0x40,0x50,0x93,0x4d,0x5a,0x00,0x93,0x47,0x5a,0x00,0x93,
0x4f,0x5a,0x00,0x93,0x4a,0x5a,0x85,0x50,0x83,0x4a,0x40,0x00,0x83,0x4f,0x40,0x00,
0x83,0x47,0x40,0x00,0x83,0x4d,0x40,0x3c,0x93,0x4a,0x5a,0x00,0x93,0x47,0x5a,0x00,
0x93,0x4f,0x5a,0x00,0x93,0x4d,0x5a,0x81,0x32,0x83,0x4d,0x40,0x00,0x83,0x4f,0x40,
0x00,0x83,0x47,0x40,0x00,0x83,0x4a,0x40,0x02,0x93,0x43,0x5a,0x00,0x93,0x46,0x5a,
0x00,0x93,0x48,0x5a,0x00,0x93,0x4c,0x5a,0x3c,0x83,0x4c,0x40,0x00,0x83,0x48,0x40,
0x00,0x83,0x46,0x40,0x00,0x83,0x43,0x40,0x00,0xff,0x2f,0x00,0x4d,0x54,0x72,0x6b,
0x00,0x00,0x02,0xfe,0x00,0xff,0x03,0x09,0x74,0x65,0x6e,0x6f,0x72,0x20,0x73,0x61,
0x78,0x00,0xc4,0x42,0x00,0xb4,0x07,0x50,0x00,0xb4,0x5b,0x50,0x00,0xb4,0x0a,0x68,
0xcd,0x68,0x94,0x43,0x40,0x00,0x94,0x3b,0x40,0x81,0x34,0x84,0x3b,0x40,0x02,0x84,
0x43,0x40,0x3a,0x94,0x43,0x40,0x00,0x94,0x3b,0x40,0x24,0x84,0x3b,0x40,0x02,0x84,
0x43,0x40,0x52,0x94,0x3b,0x40,0x00,0x94,0x43,0x40,0x2a,0x84,0x43,0x40,0x02,0x84,
0x3b,0x40,0x4c,0x94,0x43,0x40,0x00,0x94,0x3b,0x40,0x28,0x84,0x3b,0x40,0x00,0x84,
0x43,0x40,0x50,0x94,0x3b,0x40,0x00,0x94,0x43,0x40,0x81,0x14,0x84,0x43,0x40,0x00,
0x84,0x3b,0x40,0x20,0x94,0x43,0x40,0x00,0x94,0x3b,0x40,0x36,0x84,0x43,0x40,0x08,
0x84,0x3b,0x40,0x76,0x94,0x40,0x40,0x00,0x94,0x3a,0x40,0x81,0x30,0x84,0x3a,0x40,
0x06,0x84,0x40,0x40,0x3a,0x94,0x40,0x40,0x00,0x94,0x3a,0x40,0x22,0x84,0x3a,0x40,
0x04,0x84,0x40,0x40,0x52,0x94,0x3a,0x40,0x00,0x94,0x40,0x40,0x26,0x84,0x40,0x40,
0x02,0x84,0x3a,0x40,0x50,0x94,0x3a,0x40,0x00,0x94,0x40,0x40,0x22,0x84,0x40,0x40,
0x02,0x84,0x3a,0x40,0x54,0x94,0x3a,0x40,0x00,0x94,0x40,0x40,0x81,0x10,0x84,0x3a,
0x40,0x02,0x84,0x40,0x40,0x22,0x94,0x40,0x40,0x00,0x94,0x3a,0x40,0x2a,0x84,0x40,
0x40,0x0c,0x84,0x3a,0x40,0x7e,0x94,0x43,0x40,0x00,0x94,0x3b,0x40,0x81,0x4e,0x84,
0x43,0x40,0x02,0x84,0x3b,0x40,0x20,0x94,0x43,0x40,0x00,0x94,0x3b,0x40,0x24,0x84,
0x3b,0x40,0x02,0x84,0x43,0x40,0x52,0x94,0x43,0x40,0x00,0x94,0x3b,0x40,0x26,0x84,
0x3b,0x40,0x02,0x84,0x43,0x40,0x50,0x94,0x43,0x40,0x00,0x94,0x3b,0x40,0x24,0x84,
0x3b,0x40,0x02,0x84,0x43,0x40,0x52,0x94,0x3b,0x40,0x00,0x94,0x43,0x40,0x81,0x0c,
0x84,0x3b,0x40,0x04,0x84,0x43,0x40,0x24,0x94,0x43,0x40,0x00,0x94,0x3b,0x40,0x46,
0x84,0x43,0x40,0x02,0x84,0x3b,0x40,0x6c,0x94,0x3a,0x40,0x00,0x94,0x40,0x40,0x42,
0x84,0x3a,0x40,0x04,0x84,0x40,0x40,0x86,0x7a,0x94,0x43,0x40,0x00,0x94,0x3b,0x40,
0x81,0x40,0x84,0x43,0x40,0x04,0x84,0x3b,0x40,0x2c,0x94,0x43,0x40,0x00,0x94,0x3b,
0x40,0x22,0x84,0x43,0x40,0x04,0x84,0x3b,0x40,0x52,0x94,0x3b,0x40,0x00,0x94,0x43,
0x40,0x26,0x84,0x43,0x40,0x02,0x84,0x3b,0x40,0x50,0x94,0x43,0x40,0x00,0x94,0x3b,
0x40,0x26,0x84,0x3b,0x40,0x02,0x84,0x43,0x40,0x50,0x94,0x43,0x40,0x00,0x94,0x3b,
0x40,0x81,0x12,0x84,0x3b,0x40,0x08,0x84,0x43,0x40,0x1a,0x94,0x43,0x40,0x00,0x94,
0x3b,0x40,0x2e,0x84,0x43,0x40,0x0c,0x84,0x3b,0x40,0x7a,0x94,0x40,0x40,0x00,0x94,
0x3a,0x40,0x81,0x3c,0x84,0x3a,0x40,0x06,0x84,0x40,0x40,0x2e,0x94,0x3a,0x40,0x00,
0x94,0x40,0x40,0x22,0x84,0x40,0x40,0x02,0x84,0x3a,0x40,0x54,0x94,0x3a,0x40,0x00,
0x94,0x40,0x40,0x26,0x84,0x40,0x40,0x00,0x84,0x3a,0x40,0x52,0x94,0x3a,0x40,0x00,
0x94,0x40,0x40,0x22,0x84,0x3a,0x40,0x06,0x84,0x40,0x40,0x50,0x94,0x3a,0x40,0x00,
0x94,0x40,0x40,0x81,0x14,0x84,0x3a,0x40,0x02,0x84,0x40,0x40,0x1e,0x94,0x3a,0x40,
0x00,0x94,0x40,0x40,0x30,0x84,0x40,0x40,0x06,0x84,0x3a,0x40,0x7e,0x94,0x3b,0x40,
0x00,0x94,0x43,0x40,0x81,0x40,0x84,0x3b,0x40,0x02,0x84,0x43,0x40,0x2e,0x94,0x43,
0x40,0x00,0x94,0x3b,0x40,0x26,0x84,0x43,0x40,0x02,0x84,0x3b,0x40,0x50,0x94,0x43,
0x40,0x00,0x94,0x3b,0x40,0x26,0x84,0x3b,0x40,0x02,0x84,0x43,0x40,0x50,0x94,0x3b,
0x40,0x00,0x94,0x43,0x40,0x24,0x84,0x43,0x40,0x00,0x84,0x3b,0x40,0x54,0x94,0x54,
0x5a,0x00,0x94,0x5b,0x5a,0x1e,0x84,0x54,0x40,0x06,0x84,0x5b,0x40,0x18,0x94,0x54,
0x5a,0x00,0x94,0x5b,0x5a,0x3a,0x84,0x5b,0x40,0x02,0x84,0x54,0x40,0x00,0x94,0x52,
0x5a,0x00,0x94,0x59,0x5a,0x2c,0x84,0x52,0x40,0x06,0x84,0x59,0x40,0x0a,0x94,0x5b,
0x5a,0x00,0x94,0x54,0x5a,0x50,0x84,0x54,0x40,0x06,0x84,0x5b,0x40,0x5e,0x94,0x5e,
0x5a,0x00,0x94,0x57,0x5a,0x3c,0x94,0x54,0x5a,0x00,0x94,0x5b,0x5a,0x14,0x84,0x57,
0x40,0x00,0x84,0x5e,0x40,0x3c,0x84,0x5b,0x40,0x00,0x84,0x54,0x40,0x85,0x78,0x94,
0x52,0x5a,0x00,0x94,0x59,0x5a,0x28,0x84,0x59,0x40,0x00,0x84,0x52,0x40,0x14,0x94,
0x52,0x5a,0x00,0x94,0x59,0x5a,0x28,0x84,0x59,0x40,0x00,0x84,0x52,0x40,0x14,0x94,
0x53,0x5a,0x00,0x94,0x5a,0x5a,0x28,0x84,0x5a,0x40,0x00,0x84,0x53,0x40,0x14,0x94,
0x54,0x5a,0x00,0x94,0x5b,0x5a,0x3c,0x84,0x5b,0x40,0x00,0x84,0x54,0x40,0x00,0xff,
0x2f,0x00,0x4d,0x54,0x72,0x6b,0x00,0x00,0x00,0xb4,0x00,0xff,0x03,0x08,0x74,0x72,
0x6f,0x6d,0x62,0x6f,0x6e,0x65,0x00,0xc5,0x38,0x00,0xb5,0x07,0x78,0x78,0xb5,0x5b,
0x64,0x00,0xb5,0x0a,0x2c,0x00,0xb5,0x0b,0x50,0xea,0x70,0x95,0x3b,0x66,0x00,0x95,
0x43,0x6e,0x50,0xb5,0x0b,0x54,0x7a,0xb5,0x0b,0x5a,0x7c,0xb5,0x0b,0x60,0x7a,0xb5,
0x0b,0x66,0x7a,0xb5,0x0b,0x6c,0x7a,0xb5,0x0b,0x72,0x7a,0xb5,0x0b,0x78,0x7e,0x85,
0x43,0x40,0x00,0x85,0x3b,0x40,0x12,0xb5,0x0b,0x7f,0x02,0x95,0x3a,0x66,0x00,0x95,
0x40,0x6e,0x3c,0xb5,0x0b,0x7c,0x7a,0xb5,0x0b,0x76,0x7a,0xb5,0x0b,0x70,0x7c,0xb5,
0x0b,0x6a,0x7a,0xb5,0x0b,0x64,0x7a,0xb5,0x0b,0x5e,0x7a,0xb5,0x0b,0x58,0x7a,0xb5,
0x0b,0x52,0x18,0x85,0x40,0x40,0x00,0x85,0x3a,0x40,0x12,0xb5,0x0b,0x50,0x02,0x95,
0x43,0x6e,0x00,0x95,0x3b,0x66,0x2c,0xb5,0x0b,0x53,0x5a,0xb5,0x0b,0x59,0x5a,0xb5,
0x0b,0x5f,0x58,0xb5,0x0b,0x65,0x5a,0xb5,0x0b,0x6b,0x5a,0xb5,0x0b,0x71,0x58,0x85,
0x3b,0x40,0x00,0x85,0x43,0x40,0x12,0xb5,0x0b,0x78,0x00,0xff,0x2f,0x00,0x4d,0x54,
0x72,0x6b,0x00,0x00,0x00,0xbe,0x00,0xff,0x03,0x05,0x62,0x72,0x61,0x73,0x73,0x00,
0xc6,0x3d,0x00,0xb6,0x07,0x64,0x00,0xb6,0x5b,0x50,0x00,0xb6,0x0a,0x18,0xff,0x40,
0x96,0x54,0x64,0x00,0x96,0x5b,0x64,0x1e,0x86,0x54,0x40,0x06,0x86,0x5b,0x40,0x18,
0x96,0x54,0x64,0x00,0x96,0x5b,0x64,0x3a,0x86,0x5b,0x40,0x02,0x86,0x54,0x40,0x00,
0x96,0x52,0x64,0x00,0x96,0x59,0x64,0x2c,0x86,0x52,0x40,0x06,0x86,0x59,0x40,0x0a,
0x96,0x5b,0x64,0x00,0x96,0x54,0x64,0x50,0x86,0x54,0x40,0x06,0x86,0x5b,0x40,0x5e,
0x96,0x5e,0x64,0x00,0x96,0x57,0x64,0x3c,0x96,0x54,0x64,0x00,0x96,0x5b,0x64,0x14,
0x86,0x57,0x40,0x00,0x86,0x5e,0x40,0x3c,0x86,0x5b,0x40,0x00,0x86,0x54,0x40,0x85,
0x78,0x96,0x52,0x64,0x00,0x96,0x59,0x64,0x28,0x86,0x59,0x40,0x00,0x86,0x52,0x40,
0x14,0x96,0x52,0x64,0x00,0x96,0x59,0x64,0x28,0x86,0x59,0x40,0x00,0x86,0x52,0x40,
0x14,0x96,0x53,0x64,0x00,0x96,0x5a,0x64,0x28,0x86,0x5a,0x40,0x00,0x86,0x53,0x40,
0x14,0x96,0x54,0x64,0x00,0x96,0x5b,0x64,0x3c,0x86,0x5b,0x40,0x00,0x86,0x54,0x40,
0x00,0xff,0x2f,0x00,0x4d,0x54,0x72,0x6b,0x00,0x00,0x00,0x1b,0x00,0xff,0x03,0x13,
0x54,0x68,0x65,0x6d,0x65,0x20,0x74,0x6f,0x20,0x22,0x53,0x45,0x49,0x4e,0x46,0x45,
0x4c,0x44,0x22,0x00,0xff,0x2f,0x00,0x4d,0x54,0x72,0x6b,0x00,0x00,0x00,0x19,0x00,
0xff,0x03,0x0d,0x73,0x71,0x20,0x2d,0x20,0x53,0x61,0x69,0x6c,0x20,0x4b,0x69,0x6d,
0x00,0xbf,0x79,0x00,0x00,0xff,0x2f,0x00,0x4d,0x54,0x72,0x6b,0x00,0x00,0x00,0x26,
0x00,0xff,0x03,0x1e,0x3d,0x3d,0x3d,0x3d,0x3d,0x3d,0x3d,0x3d,0x3d,0x3d,0x3d,0x3d,
0x3d,0x3d,0x3d,0x3d,0x3d,0x3d,0x3d,0x3d,0x3d,0x3d,0x3d,0x3d,0x3d,0x3d,0x3d,0x3d,
0x3d,0x3d,0x00,0xff,0x2f,0x00,0x4d,0x54,0x72,0x6b,0x00,0x00,0x00,0x22,0x00,0xff,
0x03,0x1a,0x50,0x65,0x61,0x72,0x74,0x6d,0x61,0x6e,0x27,0x73,0x20,0x44,0x72,0x75,
0x6d,0x20,0x56,0x65,0x72,0x73,0x69,0x6f,0x6e,0x2e,0x2e,0x2e,0x00,0xff,0x2f,0x00,
0x4d,0x54,0x72,0x6b,0x00,0x00,0x06,0x6c,0x00,0xff,0x03,0x14,0x50,0x45,0x41,0x52,
0x54,0x27,0x73,0x20,0x48,0x61,0x6e,0x64,0x20,0x53,0x68,0x61,0x6b,0x65,0x72,0x20,
0x78,0x99,0x36,0x50,0x3c,0x89,0x36,0x40,0x3c,0x99,0x46,0x50,0x1e,0x89,0x46,0x40,
0x1e,0x99,0x46,0x50,0x1e,0x89,0x46,0x40,0x1e,0x99,0x36,0x50,0x3c,0x89,0x36,0x40,
0x3c,0x99,0x46,0x50,0x1e,0x89,0x46,0x40,0x1e,0x99,0x46,0x50,0x1e,0x89,0x46,0x40,
0x1e,0x99,0x36,0x50,0x3c,0x89,0x36,0x40,0x3c,0x99,0x46,0x50,0x1e,0x89,0x46,0x40,
0x1e,0x99,0x46,0x50,0x1e,0x89,0x46,0x40,0x1e,0x99,0x36,0x50,0x3c,0x89,0x36,0x40,
0x3c,0x99,0x46,0x50,0x1e,0x89,0x46,0x40,0x1e,0x99,0x46,0x50,0x1e,0x89,0x46,0x40,
0x1e,0x99,0x36,0x50,0x3c,0x89,0x36,0x40,0x3c,0x99,0x46,0x50,0x1e,0x89,0x46,0x40,
0x1e,0x99,0x46,0x50,0x1e,0x89,0x46,0x40,0x1e,0x99,0x36,0x50,0x3c,0x89,0x36,0x40,
0x3c,0x99,0x46,0x50,0x1e,0x89,0x46,0x40,0x1e,0x99,0x46,0x50,0x1e,0x89,0x46,0x40,
0x1e,0x99,0x36,0x50,0x3c,0x89,0x36,0x40,0x3c,0x99,0x46,0x50,0x1e,0x89,0x46,0x40,
0x1e,0x99,0x46,0x50,0x1e,0x89,0x46,0x40,0x1e,0x99,0x36,0x50,0x3c,0x89,0x36,0x40,
0x3c,0x99,0x46,0x50,0x1e,0x89,0x46,0x40,0x1e,0x99,0x46,0x50,0x1e,0x89,0x46,0x40,
0x1e,0x99,0x36,0x50,0x3c,0x89,0x36,0x40,0x3c,0x99,0x46,0x50,0x1e,0x89,0x46,0x40,
0x1e,0x99,0x46,0x50,0x1e,0x89,0x46,0x40,0x1e,0x99,0x36,0x50,0x3c,0x89,0x36,0x40,
0x3c,0x99,0x46,0x50,0x1e,0x89,0x46,0x40,0x1e,0x99,0x46,0x50,0x1e,0x89,0x46,0x40,
0x1e,0x99,0x36,0x50,0x3c,0x89,0x36,0x40,0x3c,0x99,0x46,0x50,0x1e,0x89,0x46,0x40,
0x1e,0x99,0x46,0x50,0x1e,0x89,0x46,0x40,0x1e,0x99,0x36,0x50,0x3c,0x89,0x36,0x40,
0x3c,0x99,0x46,0x50,0x1e,0x89,0x46,0x40,0x1e,0x99,0x46,0x50,0x1e,0x89,0x46,0x40,
0x1e,0x99,0x36,0x50,0x3c,0x89,0x36,0x40,0x3c,0x99,0x46,0x50,0x1e,0x89,0x46,0x40,
0x1e,0x99,0x46,0x50,0x1e,0x89,0x46,0x40,0x1e,0x99,0x36,0x50,0x3c,0x89,0x36,0x40,
0x3c,0x99,0x46,0x50,0x1e,0x89,0x46,0x40,0x1e,0x99,0x46,0x50,0x1e,0x89,0x46,0x40,
0x1e,0x99,0x36,0x50,0x3c,0x89,0x36,0x40,0x3c,0x99,0x46,0x50,0x1e,0x89,0x46,0x40,
0x1e,0x99,0x46,0x50,0x1e,0x89,0x46,0x40,0x1e,0x99,0x36,0x50,0x3c,0x89,0x36,0x40,
0x3c,0x99,0x46,0x50,0x1e,0x89,0x46,0x40,0x1e,0x99,0x46,0x50,0x1e,0x89,0x46,0x40,
0x1e,0x99,0x36,0x50,0x3c,0x89,0x36,0x40,0x3c,0x99,0x46,0x50,0x1e,0x89,0x46,0x40,
0x1e,0x99,0x46,0x50,0x1e,0x89,0x46,0x40,0x1e,0x99,0x36,0x50,0x3c,0x89,0x36,0x40,
0x3c,0x99,0x46,0x50,0x1e,0x89,0x46,0x40,0x1e,0x99,0x46,0x50,0x1e,0x89,0x46,0x40,
0x1e,0x99,0x36,0x50,0x3c,0x89,0x36,0x40,0x3c,0x99,0x46,0x50,0x1e,0x89,0x46,0x40,
0x1e,0x99,0x46,0x50,0x1e,0x89,0x46,0x40,0x1e,0x99,0x36,0x50,0x3c,0x89,0x36,0x40,
0x3c,0x99,0x46,0x50,0x1e,0x89,0x46,0x40,0x1e,0x99,0x46,0x50,0x1e,0x89,0x46,0x40,
0x1e,0x99,0x36,0x50,0x3c,0x89,0x36,0x40,0x3c,0x99,0x46,0x50,0x1e,0x89,0x46,0x40,
0x1e,0x99,0x46,0x50,0x1e,0x89,0x46,0x40,0x1e,0x99,0x36,0x50,0x3c,0x89,0x36,0x40,
0x3c,0x99,0x46,0x50,0x1e,0x89,0x46,0x40,0x1e,0x99,0x46,0x50,0x1e,0x89,0x46,0x40,
0x1e,0x99,0x36,0x50,0x3c,0x89,0x36,0x40,0x3c,0x99,0x46,0x50,0x1e,0x89,0x46,0x40,
0x1e,0x99,0x46,0x50,0x1e,0x89,0x46,0x40,0x1e,0x99,0x36,0x50,0x3c,0x89,0x36,0x40,
0x3c,0x99,0x46,0x50,0x1e,0x89,0x46,0x40,0x1e,0x99,0x46,0x50,0x1e,0x89,0x46,0x40,
0x1e,0x99,0x36,0x50,0x3c,0x89,0x36,0x40,0x3c,0x99,0x46,0x50,0x1e,0x89,0x46,0x40,
0x1e,0x99,0x46,0x50,0x1e,0x89,0x46,0x40,0x1e,0x99,0x36,0x50,0x3c,0x89,0x36,0x40,
0x3c,0x99,0x46,0x50,0x1e,0x89,0x46,0x40,0x1e,0x99,0x46,0x50,0x1e,0x89,0x46,0x40,
0x1e,0x99,0x36,0x50,0x3c,0x89,0x36,0x40,0x3c,0x99,0x46,0x50,0x1e,0x89,0x46,0x40,
0x1e,0x99,0x46,0x50,0x1e,0x89,0x46,0x40,0x1e,0x99,0x36,0x50,0x3c,0x89,0x36,0x40,
0x3c,0x99,0x46,0x50,0x1e,0x89,0x46,0x40,0x1e,0x99,0x46,0x50,0x1e,0x89,0x46,0x40,
0x1e,0x99,0x36,0x50,0x3c,0x89,0x36,0x40,0x3c,0x99,0x46,0x50,0x1e,0x89,0x46,0x40,
0x1e,0x99,0x46,0x50,0x1e,0x89,0x46,0x40,0x1e,0x99,0x36,0x50,0x3c,0x89,0x36,0x40,
0x3c,0x99,0x46,0x50,0x1e,0x89,0x46,0x40,0x1e,0x99,0x46,0x50,0x1e,0x89,0x46,0x40,
0x1e,0x99,0x36,0x50,0x3c,0x89,0x36,0x40,0x3c,0x99,0x46,0x50,0x1e,0x89,0x46,0x40,
0x1e,0x99,0x46,0x50,0x1e,0x89,0x46,0x40,0x1e,0x99,0x36,0x50,0x3c,0x89,0x36,0x40,
0x3c,0x99,0x46,0x50,0x1e,0x89,0x46,0x40,0x1e,0x99,0x46,0x50,0x1e,0x89,0x46,0x40,
0x1e,0x99,0x36,0x50,0x3c,0x89,0x36,0x40,0x3c,0x99,0x46,0x50,0x1e,0x89,0x46,0x40,
0x1e,0x99,0x46,0x50,0x1e,0x89,0x46,0x40,0x1e,0x99,0x36,0x50,0x3c,0x89,0x36,0x40,
0x3c,0x99,0x46,0x50,0x1e,0x89,0x46,0x40,0x1e,0x99,0x46,0x50,0x1e,0x89,0x46,0x40,
0x1e,0x99,0x36,0x50,0x3c,0x89,0x36,0x40,0x3c,0x99,0x46,0x50,0x1e,0x89,0x46,0x40,
0x1e,0x99,0x46,0x50,0x1e,0x89,0x46,0x40,0x1e,0x99,0x36,0x50,0x3c,0x89,0x36,0x40,
0x3c,0x99,0x46,0x50,0x1e,0x89,0x46,0x40,0x1e,0x99,0x46,0x50,0x1e,0x89,0x46,0x40,
0x1e,0x99,0x36,0x50,0x3c,0x89,0x36,0x40,0x3c,0x99,0x46,0x50,0x1e,0x89,0x46,0x40,
0x1e,0x99,0x46,0x50,0x1e,0x89,0x46,0x40,0x1e,0x99,0x36,0x50,0x3c,0x89,0x36,0x40,
0x3c,0x99,0x46,0x50,0x1e,0x89,0x46,0x40,0x1e,0x99,0x46,0x50,0x1e,0x89,0x46,0x40,
0x1e,0x99,0x36,0x50,0x3c,0x89,0x36,0x40,0x3c,0x99,0x46,0x50,0x1e,0x89,0x46,0x40,
0x1e,0x99,0x46,0x50,0x1e,0x89,0x46,0x40,0x1e,0x99,0x36,0x50,0x3c,0x89,0x36,0x40,
0x3c,0x99,0x46,0x50,0x1e,0x89,0x46,0x40,0x1e,0x99,0x46,0x50,0x1e,0x89,0x46,0x40,
0x1e,0x99,0x36,0x50,0x3c,0x89,0x36,0x40,0x3c,0x99,0x46,0x50,0x1e,0x89,0x46,0x40,
0x1e,0x99,0x46,0x50,0x1e,0x89,0x46,0x40,0x1e,0x99,0x36,0x50,0x3c,0x89,0x36,0x40,
0x3c,0x99,0x46,0x50,0x1e,0x89,0x46,0x40,0x1e,0x99,0x46,0x50,0x1e,0x89,0x46,0x40,
0x1e,0x99,0x36,0x50,0x3c,0x89,0x36,0x40,0x3c,0x99,0x46,0x50,0x1e,0x89,0x46,0x40,
0x1e,0x99,0x46,0x50,0x1e,0x89,0x46,0x40,0x1e,0x99,0x36,0x50,0x3c,0x89,0x36,0x40,
0x3c,0x99,0x46,0x50,0x1e,0x89,0x46,0x40,0x1e,0x99,0x46,0x50,0x1e,0x89,0x46,0x40,
0x1e,0x99,0x36,0x50,0x3c,0x89,0x36,0x40,0x3c,0x99,0x46,0x50,0x1e,0x89,0x46,0x40,
0x1e,0x99,0x46,0x50,0x1e,0x89,0x46,0x40,0x1e,0x99,0x36,0x50,0x3c,0x89,0x36,0x40,
0x3c,0x99,0x46,0x50,0x1e,0x89,0x46,0x40,0x1e,0x99,0x46,0x50,0x1e,0x89,0x46,0x40,
0x1e,0x99,0x36,0x50,0x3c,0x89,0x36,0x40,0x3c,0x99,0x46,0x50,0x1e,0x89,0x46,0x40,
0x1e,0x99,0x46,0x50,0x1e,0x89,0x46,0x40,0x1e,0x99,0x36,0x50,0x3c,0x89,0x36,0x40,
0x3c,0x99,0x46,0x50,0x1e,0x89,0x46,0x40,0x1e,0x99,0x46,0x50,0x1e,0x89,0x46,0x40,
0x1e,0x99,0x36,0x50,0x3c,0x89,0x36,0x40,0x3c,0x99,0x46,0x50,0x1e,0x89,0x46,0x40,
0x1e,0x99,0x46,0x50,0x1e,0x89,0x46,0x40,0x1e,0x99,0x36,0x50,0x3c,0x89,0x36,0x40,
0x3c,0x99,0x46,0x50,0x1e,0x89,0x46,0x40,0x1e,0x99,0x46,0x50,0x1e,0x89,0x46,0x40,
0x1e,0x99,0x36,0x50,0x3c,0x89,0x36,0x40,0x3c,0x99,0x46,0x50,0x1e,0x89,0x46,0x40,
0x1e,0x99,0x46,0x50,0x1e,0x89,0x46,0x40,0x1e,0x99,0x36,0x50,0x3c,0x89,0x36,0x40,
0x3c,0x99,0x46,0x50,0x1e,0x89,0x46,0x40,0x1e,0x99,0x46,0x50,0x1e,0x89,0x46,0x40,
0x1e,0x99,0x36,0x50,0x3c,0x89,0x36,0x40,0x3c,0x99,0x46,0x50,0x1e,0x89,0x46,0x40,
0x1e,0x99,0x46,0x50,0x1e,0x89,0x46,0x40,0x1e,0x99,0x36,0x50,0x3c,0x89,0x36,0x40,
0x3c,0x99,0x46,0x50,0x1e,0x89,0x46,0x40,0x1e,0x99,0x46,0x50,0x1e,0x89,0x46,0x40,
0x1e,0x99,0x36,0x50,0x3c,0x89,0x36,0x40,0x3c,0x99,0x46,0x50,0x1e,0x89,0x46,0x40,
0x1e,0x99,0x46,0x50,0x1e,0x89,0x46,0x40,0x1e,0x99,0x36,0x50,0x3c,0x89,0x36,0x40,
0x3c,0x99,0x46,0x50,0x1e,0x89,0x46,0x40,0x1e,0x99,0x46,0x50,0x1e,0x89,0x46,0x40,
0x1e,0x99,0x36,0x50,0x3c,0x89,0x36,0x40,0x3c,0x99,0x46,0x50,0x1e,0x89,0x46,0x40,
0x1e,0x99,0x46,0x50,0x1e,0x89,0x46,0x40,0x1e,0x99,0x36,0x50,0x3c,0x89,0x36,0x40,
0x3c,0x99,0x46,0x50,0x1e,0x89,0x46,0x40,0x1e,0x99,0x46,0x50,0x1e,0x89,0x46,0x40,
0x1e,0x99,0x36,0x50,0x3c,0x89,0x36,0x40,0x3c,0x99,0x46,0x50,0x1e,0x89,0x46,0x40,
0x1e,0x99,0x46,0x50,0x1e,0x89,0x46,0x40,0x1e,0x99,0x36,0x50,0x3c,0x89,0x36,0x40,
0x3c,0x99,0x46,0x50,0x1e,0x89,0x46,0x40,0x1e,0x99,0x46,0x50,0x1e,0x89,0x46,0x40,
0x1e,0x99,0x36,0x50,0x3c,0x89,0x36,0x40,0x3c,0x99,0x46,0x50,0x1e,0x89,0x46,0x40,
0x1e,0x99,0x46,0x50,0x1e,0x89,0x46,0x40,0x1e,0x99,0x36,0x50,0x3c,0x89,0x36,0x40,
0x3c,0x99,0x46,0x50,0x1e,0x89,0x46,0x40,0x1e,0x99,0x46,0x50,0x1e,0x89,0x46,0x40,
0x1e,0x99,0x36,0x50,0x3c,0x89,0x36,0x40,0x3c,0x99,0x46,0x50,0x1e,0x89,0x46,0x40,
0x1e,0x99,0x46,0x50,0x1e,0x89,0x46,0x40,0x1e,0x99,0x36,0x50,0x3c,0x89,0x36,0x40,
0x3c,0x99,0x46,0x50,0x1e,0x89,0x46,0x40,0x1e,0x99,0x46,0x50,0x1e,0x89,0x46,0x40,
0x1e,0x99,0x36,0x50,0x3c,0x89,0x36,0x40,0x3c,0x99,0x46,0x50,0x1e,0x89,0x46,0x40,
0x1e,0x99,0x46,0x50,0x1e,0x89,0x46,0x40,0x1e,0x99,0x36,0x50,0x3c,0x89,0x36,0x40,
0x3c,0x99,0x46,0x50,0x1e,0x89,0x46,0x40,0x1e,0x99,0x46,0x50,0x1e,0x89,0x46,0x40,
0x1e,0x99,0x36,0x50,0x3c,0x89,0x36,0x40,0x3c,0x99,0x46,0x50,0x1e,0x89,0x46,0x40,
0x1e,0x99,0x46,0x50,0x1e,0x89,0x46,0x40,0x1e,0x99,0x36,0x50,0x3c,0x89,0x36,0x40,
0x00,0xff,0x2f,0x00,0x4d,0x54,0x72,0x6b,0x00,0x00,0x03,0xb0,0x00,0xff,0x03,0x12,
0x57,0x6f,0x6f,0x64,0x42,0x6c,0x6f,0x63,0x6b,0x20,0x6f,0x66,0x20,0x50,0x65,0x61,
0x72,0x74,0x00,0xc7,0x73,0x92,0x60,0x97,0x24,0x40,0x1e,0x87,0x24,0x40,0x1e,0x97,
0x24,0x40,0x1e,0x87,0x24,0x40,0x81,0x16,0x97,0x41,0x40,0x1e,0x87,0x41,0x40,0x81,
0x52,0x97,0x24,0x40,0x1e,0x87,0x24,0x40,0x1e,0x97,0x24,0x40,0x1e,0x87,0x24,0x40,
0x81,0x16,0x97,0x24,0x40,0x1e,0x87,0x24,0x40,0x1e,0x97,0x24,0x40,0x1e,0x87,0x24,
0x40,0x1e,0x97,0x41,0x40,0x3c,0x87,0x41,0x40,0x87,0x7c,0x97,0x24,0x40,0x1e,0x87,
0x24,0x40,0x1e,0x97,0x24,0x40,0x1e,0x87,0x24,0x40,0x81,0x16,0x97,0x41,0x40,0x1e,
0x87,0x41,0x40,0x81,0x52,0x97,0x24,0x40,0x1e,0x87,0x24,0x40,0x1e,0x97,0x24,0x40,
0x1e,0x87,0x24,0x40,0x81,0x16,0x97,0x24,0x40,0x1e,0x87,0x24,0x40,0x1e,0x97,0x24,
0x40,0x1e,0x87,0x24,0x40,0x1e,0x97,0x41,0x40,0x3c,0x87,0x41,0x40,0x3c,0x97,0x4d,
0x40,0x1e,0x87,0x4d,0x40,0x87,0x22,0x97,0x24,0x40,0x1e,0x87,0x24,0x40,0x1e,0x97,
0x24,0x40,0x1e,0x87,0x24,0x40,0x81,0x16,0x97,0x41,0x40,0x1e,0x87,0x41,0x40,0x81,
0x52,0x97,0x35,0x40,0x1e,0x87,0x35,0x40,0x1e,0x97,0x35,0x40,0x1e,0x87,0x35,0x40,
0x1e,0x97,0x41,0x40,0x3c,0x87,0x41,0x40,0x3c,0x97,0x35,0x40,0x1e,0x87,0x35,0x40,
0x81,0x52,0x97,0x35,0x40,0x1e,0x87,0x35,0x40,0x1e,0x97,0x35,0x40,0x1e,0x87,0x35,
0x40,0x1e,0x97,0x41,0x40,0x3c,0x87,0x41,0x40,0x3c,0x97,0x35,0x40,0x1e,0x87,0x35,
0x40,0x81,0x52,0x97,0x35,0x40,0x1e,0x87,0x35,0x40,0x1e,0x97,0x35,0x40,0x1e,0x87,
0x35,0x40,0x1e,0x97,0x41,0x40,0x3c,0x87,0x41,0x40,0x3c,0x97,0x35,0x40,0x1e,0x87,
0x35,0x40,0x81,0x52,0x97,0x35,0x40,0x1e,0x87,0x35,0x40,0x1e,0x97,0x35,0x40,0x1e,
0x87,0x35,0x40,0x81,0x16,0x97,0x35,0x40,0x1e,0x87,0x35,0x40,0x81,0x52,0x97,0x35,
0x40,0x1e,0x87,0x35,0x40,0x1e,0x97,0x35,0x40,0x1e,0x87,0x35,0x40,0x1e,0x97,0x41,
0x40,0x3c,0x87,0x41,0x40,0x3c,0x97,0x35,0x40,0x1e,0x87,0x35,0x40,0x81,0x52,0x97,
0x35,0x40,0x1e,0x87,0x35,0x40,0x1e,0x97,0x35,0x40,0x1e,0x87,0x35,0x40,0x1e,0x97,
0x41,0x40,0x3c,0x87,0x41,0x40,0x3c,0x97,0x35,0x40,0x1e,0x87,0x35,0x40,0x81,0x52,
0x97,0x35,0x40,0x1e,0x87,0x35,0x40,0x1e,0x97,0x35,0x40,0x1e,0x87,0x35,0x40,0x1e,
0x97,0x41,0x40,0x3c,0x87,0x41,0x40,0x3c,0x97,0x35,0x40,0x1e,0x87,0x35,0x40,0x81,
0x52,0x97,0x35,0x40,0x1e,0x87,0x35,0x40,0x1e,0x97,0x35,0x40,0x1e,0x87,0x35,0x40,
0x1e,0x97,0x41,0x40,0x3c,0x87,0x41,0x40,0x3c,0x97,0x35,0x40,0x1e,0x87,0x35,0x40,
0x1e,0x97,0x35,0x40,0x1e,0x87,0x35,0x40,0x81,0x16,0x97,0x35,0x40,0x1e,0x87,0x35,
0x40,0x1e,0x97,0x35,0x40,0x1e,0x87,0x35,0x40,0x1e,0x97,0x41,0x40,0x3c,0x87,0x41,
0x40,0x3c,0x97,0x35,0x40,0x1e,0x87,0x35,0x40,0x81,0x52,0x97,0x35,0x40,0x1e,0x87,
0x35,0x40,0x1e,0x97,0x35,0x40,0x1e,0x87,0x35,0x40,0x1e,0x97,0x41,0x40,0x3c,0x87,
0x41,0x40,0x3c,0x97,0x35,0x40,0x1e,0x87,0x35,0x40,0x1e,0x97,0x35,0x40,0x1e,0x87,
0x35,0x40,0x81,0x16,0x97,0x35,0x40,0x1e,0x87,0x35,0x40,0x1e,0x97,0x35,0x40,0x1e,
0x87,0x35,0x40,0x1e,0x97,0x41,0x40,0x3c,0x87,0x41,0x40,0x3c,0x97,0x35,0x40,0x1e,
0x87,0x35,0x40,0x1e,0x97,0x35,0x40,0x1e,0x87,0x35,0x40,0x81,0x16,0x97,0x35,0x40,
0x1e,0x87,0x35,0x40,0x1e,0x97,0x35,0x40,0x1e,0x87,0x35,0x40,0x1e,0x97,0x41,0x40,
0x3c,0x87,0x41,0x40,0x3c,0x97,0x35,0x40,0x1e,0x87,0x35,0x40,0x81,0x52,0x97,0x24,
0x40,0x1e,0x87,0x24,0x40,0x1e,0x97,0x24,0x40,0x1e,0x87,0x24,0x40,0x81,0x16,0x97,
0x24,0x40,0x1e,0x87,0x24,0x40,0x1e,0x97,0x24,0x40,0x1e,0x87,0x24,0x40,0x1e,0x97,
0x41,0x40,0x3c,0x87,0x41,0x40,0x3c,0x97,0x4d,0x40,0x1e,0x87,0x4d,0x40,0x85,0x6e,
0x97,0x35,0x40,0x1e,0x87,0x35,0x40,0x81,0x16,0x97,0x35,0x40,0x1e,0x87,0x35,0x40,
0x1e,0x97,0x35,0x40,0x1e,0x87,0x35,0x40,0x1e,0x97,0x41,0x40,0x3c,0x87,0x41,0x40,
0x3c,0x97,0x35,0x40,0x1e,0x87,0x35,0x40,0x81,0x52,0x97,0x35,0x40,0x1e,0x87,0x35,
0x40,0x1e,0x97,0x35,0x40,0x1e,0x87,0x35,0x40,0x1e,0x97,0x41,0x40,0x3c,0x87,0x41,
0x40,0x3c,0x97,0x35,0x40,0x1e,0x87,0x35,0x40,0x81,0x52,0x97,0x35,0x40,0x1e,0x87,
0x35,0x40,0x1e,0x97,0x35,0x40,0x1e,0x87,0x35,0x40,0x1e,0x97,0x41,0x40,0x3c,0x87,
0x41,0x40,0x3c,0x97,0x35,0x40,0x1e,0x87,0x35,0x40,0x81,0x52,0x97,0x35,0x40,0x1e,
0x87,0x35,0x40,0x1e,0x97,0x35,0x40,0x1e,0x87,0x35,0x40,0x1e,0x97,0x41,0x40,0x3c,
0x87,0x41,0x40,0x3c,0x97,0x35,0x40,0x1e,0x87,0x35,0x40,0x1e,0x97,0x35,0x40,0x1e,
0x87,0x35,0x40,0x81,0x16,0x97,0x35,0x40,0x1e,0x87,0x35,0x40,0x1e,0x97,0x35,0x40,
0x1e,0x87,0x35,0x40,0x1e,0x97,0x41,0x40,0x3c,0x87,0x41,0x40,0x3c,0x97,0x35,0x40,
0x1e,0x87,0x35,0x40,0x1e,0x97,0x35,0x40,0x1e,0x87,0x35,0x40,0x81,0x16,0x97,0x24,
0x40,0x1e,0x87,0x24,0x40,0x1e,0x97,0x24,0x40,0x1e,0x87,0x24,0x40,0x81,0x16,0x97,
0x24,0x40,0x1e,0x87,0x24,0x40,0x1e,0x97,0x24,0x40,0x1e,0x87,0x24,0x40,0x1e,0x97,
0x41,0x40,0x3c,0x87,0x41,0x40,0x3c,0x97,0x4d,0x40,0x1e,0x87,0x4d,0x40,0x83,0x7e,
0x97,0x35,0x40,0x1e,0x87,0x35,0x40,0x1e,0x97,0x41,0x40,0x3c,0x87,0x41,0x40,0x3c,
0x97,0x35,0x40,0x1e,0x87,0x35,0x40,0x82,0x0e,0x97,0x35,0x50,0x3c,0x87,0x35,0x40,
0x0a,0x97,0x4d,0x64,0x3c,0x87,0x4d,0x40,0x00,0xff,0x2f,0x00,
};
